<?xml version="1.0" standalone="no"?>
<!DOCTYPE svg PUBLIC "-//W3C//DTD SVG 1.1//EN" "http://www.w3.org/Graphics/SVG/1.1/DTD/svg11.dtd" >
<svg xmlns="http://www.w3.org/2000/svg">
<metadata>
This is a custom SVG webfont generated by Font Squirrel.
</metadata>
<defs>
<font id="webfontAHwbemiw" horiz-adv-x="512" >
<font-face units-per-em="2048" ascent="1638" descent="-410" />
<missing-glyph horiz-adv-x="500" />
<glyph unicode=" " />
<glyph unicode="!" horiz-adv-x="606" d="M199 92q0 41 30.5 72t73.5 31t74 -31t31 -74t-31 -72.5t-74 -29.5t-73.5 29.5t-30.5 72.5v2zM213 487v887q0 43 24.5 68.5t65.5 25.5t65.5 -25.5t24.5 -70.5v-885q0 -47 -24.5 -72.5t-65.5 -25.5t-65.5 25.5t-24.5 70.5v2z" />
<glyph unicode="&#x22;" horiz-adv-x="684" d="M113 1104v278q0 37 20.5 61.5t63.5 24.5t63.5 -24.5t20.5 -63.5v-276q0 -41 -20.5 -65.5t-63.5 -24.5t-63.5 24.5t-20.5 63.5v2zM403 1104v278q0 37 20.5 61.5t63.5 24.5t63.5 -24.5t20.5 -63.5v-276q0 -41 -20.5 -65.5t-63.5 -24.5t-63.5 24.5t-20.5 63.5v2z" />
<glyph unicode="#" horiz-adv-x="1097" d="M780 442l-53 -381q-4 -37 -20.5 -55t-57.5 -18q-37 0 -53 20.5t-16 46.5q0 16 3 37l7 49l41 301h-244l-53 -381q-4 -37 -20.5 -55t-57.5 -18q-37 0 -53.5 20.5t-16.5 46.5q0 16 3 37l8 49l41 301h-125q-35 -2 -59.5 15.5t-24.5 50.5q0 35 24.5 51t59.5 16l143 3l43 303 h-125q-35 -2 -59.5 15t-24.5 50q0 35 24.5 51.5t59.5 16.5l143 2l54 381q4 33 21.5 52t56.5 19q37 0 53 -20.5t16 -48.5q0 -16 -3 -37l-7 -49l-41 -297h244l53 381q4 33 21.5 52t56.5 19q37 0 53 -20.5t16 -48.5q0 -16 -3 -37l-7 -49l-41 -297h125q35 -2 59.5 -18.5 t24.5 -51.5t-24.5 -51t-59.5 -16l-143 2l-43 -303h125q35 -2 59.5 -18.5t24.5 -51.5q0 -33 -25 -50.5t-59 -17.5zM649 578l43 303h-243l-43 -303h243z" />
<glyph unicode="$" horiz-adv-x="985" d="M446 143v568q-10 2 -20 5l-23 7q-129 45 -237.5 118.5t-108.5 252.5q0 18 2 35.5t7 35.5q27 106 125 197.5t255 105.5v99q0 16 11.5 28.5t31.5 12.5t31.5 -12.5t11.5 -30.5v-95q123 -10 218.5 -58t95.5 -114q0 -33 -21.5 -56t-56.5 -23q-16 0 -28.5 4t-26.5 10l-26 17 q-13 9 -30 18q-23 14 -52.5 26.5t-72.5 18.5v-447q16 -8 33 -14l35 -12q127 -47 234.5 -128t107.5 -266q0 -164 -105.5 -296t-304.5 -154v-105q0 -18 -11 -30.5t-32 -12.5q-20 0 -31.5 12.5t-11.5 30.5v97q-147 0 -266 51t-135 113q0 4 -1 8t-1 8q0 33 18.5 59.5t53.5 26.5 h3q28 -2 57.5 -19.5t66.5 -35.5q37 -23 87 -40.5t117 -17.5v2zM532 680v-526q102 20 160 98t58 186q0 102 -63.5 154.5t-154.5 85.5v2zM446 899v416q-86 -12 -141 -68.5t-55 -140.5t56 -130t140 -79v2z" />
<glyph unicode="%" horiz-adv-x="1517" d="M428 119l545 1306q14 31 30.5 45.5t40.5 14.5q31 0 48.5 -13.5t21.5 -29.5q2 -2 2 -5v-7q0 -12 -6 -31t-23 -62l-544 -1304q-14 -33 -30.5 -47.5t-45.5 -14.5q-31 0 -48.5 14.5t-19.5 32.5v4v3q0 12 6.5 31.5t22.5 60.5v2zM1120.5 -12q-153.5 0 -232.5 103.5t-79 240.5 t79 241.5t232 104.5q154 0 233 -104.5t79 -241.5t-79 -240.5t-232.5 -103.5zM1120 98q86 -2 126 58.5t48 134.5q0 10 1 20.5t1 20.5t-1 20t-1 21q-8 74 -48 134t-126 60t-126 -60.5t-48 -133.5q0 -10 -1 -20.5t-1 -20.5t1 -20.5t1 -20.5q8 -74 48 -134.5t126 -60.5v2z M397 778q-154 -2 -232.5 102.5t-78.5 241.5t79 241.5t232 104.5q154 0 233 -104t79 -242q0 -137 -79 -241.5t-233 -104.5v2zM397 889q86 -2 126 58.5t48 133.5q0 10 1 20.5t1 20.5t-1 20.5t-1 20.5q-8 74 -48 134.5t-126 60.5t-126 -60.5t-48 -134.5q0 -10 -1 -20t-1 -21 q0 -10 1 -20t1 -21q8 -74 48 -134t126 -60v2z" />
<glyph unicode="&#x26;" horiz-adv-x="1366" d="M651 854l326 -385l12 16q53 72 90 137.5t72 96.5q10 8 20.5 13t20.5 5q31 0 53.5 -15t22.5 -46q0 -41 -40 -118t-151 -210l178 -209q8 -12 15 -20l12 -17q4 -10 7 -20t3 -23q0 -33 -21.5 -52t-51.5 -19q-23 0 -39.5 7t-30.5 23l-176 205q-86 -111 -184.5 -166t-198.5 -65 q-18 -2 -34.5 -3t-33.5 -1q-178 0 -313 110.5t-135 311.5q0 166 69.5 262t194.5 176q14 10 30 19l31 20q-51 51 -94 110.5t-59 120.5q-4 12 -6 25.5t-2 27.5q0 162 104 229.5t252 67.5q129 0 224 -72.5t95 -185.5q0 -139 -81.5 -221t-180.5 -137v2zM254 432 q0 -115 70.5 -196.5t214.5 -81.5q55 0 105 14t97 47q33 23 65 53.5t66 71.5l-372 432l-61 -39q-28 -18 -50 -37q-76 -61 -105.5 -124.5t-29.5 -141.5v2zM418 1178q0 -47 41 -100.5t94 -112.5l26 16l27 16q51 35 95 81t44 102q0 72 -50 107.5t-109 37.5h-3h-3q-66 0 -114 -37 t-48 -112v2z" />
<glyph unicode="'" horiz-adv-x="417" d="M125 1104v278q0 37 20.5 61.5t63.5 24.5t63.5 -24.5t20.5 -63.5v-276q0 -41 -20.5 -65.5t-63.5 -24.5t-63.5 24.5t-20.5 63.5v2z" />
<glyph unicode="(" horiz-adv-x="493" d="M133 651v27v29q4 195 35 381t84 325q14 37 34.5 64.5t55.5 27.5q37 0 54.5 -18.5t17.5 -40.5q0 -23 -9.5 -48.5t-19.5 -60.5q-39 -125 -61.5 -291.5t-22.5 -396.5q0 -229 22.5 -395t61.5 -291q10 -35 19.5 -60.5t9.5 -47.5q0 -23 -17.5 -41.5t-54.5 -18.5 q-35 0 -55.5 27.5t-34.5 64.5q-53 137 -84 323.5t-35 381.5v29v28v2z" />
<glyph unicode=")" horiz-adv-x="493" d="M360 651v-30v-29q-4 -195 -34.5 -381t-83.5 -324q-14 -37 -35 -64.5t-55 -27.5q-37 0 -54.5 18.5t-17.5 41.5t9 48t20 60q41 125 62.5 291t21.5 395t-21.5 396t-62.5 292q-10 35 -19.5 60.5t-9.5 48.5t17.5 41t54.5 18q35 0 55 -27.5t35 -64.5q53 -139 83.5 -325.5 t34.5 -380.5v-29v-29v2z" />
<glyph unicode="*" horiz-adv-x="798" d="M307 1108l-182 76q-33 12 -40 27.5t-7 35.5q0 29 20.5 49.5t51.5 20.5t69 -31l84 -67l22 -18q11 -9 23 -17q0 14 -1 29.5t-3 29.5l-4 28q-2 13 -2 25q-6 29 -9 54.5t-3 46.5q0 29 19.5 50t53.5 21q35 0 54.5 -21.5t19.5 -49.5q0 -20 -3 -46t-7 -55l-4 -25l-4 -28 q-2 -14 -3 -29.5t-1 -29.5q12 8 23 17l22 18l84 67q39 31 69 31q31 0 51.5 -20.5t20.5 -49.5q0 -20 -7 -35.5t-40 -29.5l-182 -74l182 -76q33 -16 40 -31.5t7 -35.5q0 -27 -20.5 -48.5t-51.5 -21.5t-69 31l-84 67l-22 18q-11 9 -23 17q0 -14 1 -29.5t3 -29.5l4 -28l4 -26 q4 -29 7 -54t3 -46q0 -29 -19.5 -50.5t-54.5 -21.5t-54 21.5t-19 50.5q0 20 3 46t9 54q0 12 2 26l4 28q2 14 3 29.5t1 29.5q-12 -8 -23 -17l-22 -18l-84 -67q-39 -31 -69 -31q-31 0 -51.5 21.5t-20.5 48.5q0 20 7 35.5t40 29.5z" />
<glyph unicode="+" horiz-adv-x="1228" d="M530 602v346q0 37 20.5 61.5t63.5 24.5t63.5 -24.5t20.5 -63.5v-344h346q39 -2 64 -22.5t25 -63.5t-25 -63.5t-64 -20.5l-346 2v-346q0 -41 -20.5 -64.5t-63.5 -23.5t-63.5 23.5t-20.5 62.5v348h-346q-39 -2 -63.5 18.5t-24.5 63.5t24.5 63.5t63.5 20.5z" />
<glyph unicode="," d="M68 -104l114 225q16 27 37 50.5t60 23.5q33 0 57 -21.5t24 -56.5v-5v-6q-2 -14 -7 -29.5t-15 -35.5l-115 -223q-14 -29 -34.5 -52.5t-61.5 -23.5q-33 0 -57.5 21.5t-24.5 56.5v5v5q2 14 7.5 30t15.5 36z" />
<glyph unicode="-" horiz-adv-x="720" d="M571 471h-421q-33 -2 -55.5 20.5t-22.5 55.5t22.5 55.5t55.5 22.5l421 2q33 -2 55.5 -24.5t22.5 -55.5t-22.5 -55.5t-55.5 -22.5v2z" />
<glyph unicode="." d="M152 92q0 41 30.5 72t73.5 31t73.5 -31t30.5 -74t-30.5 -72.5t-73.5 -29.5t-73.5 29.5t-30.5 72.5v2z" />
<glyph unicode="/" horiz-adv-x="833" d="M70 154l559 1255q10 23 29.5 41t54.5 18t57.5 -20.5t22.5 -54.5q0 -12 -6.5 -34t-22.5 -56l-559 -1254q-10 -27 -29.5 -44t-54.5 -17t-57.5 19.5t-22.5 53.5q0 12 7 35t22 56v2z" />
<glyph unicode="0" horiz-adv-x="1097" d="M68 729q0 350 141 544.5t340 194.5q201 0 341 -194.5t140 -546.5t-140 -545.5t-341 -193.5q-199 0 -340 193.5t-141 545.5v2zM260 729q0 -307 85 -447.5t204 -140.5q121 0 205 140.5t84 445.5t-84 445.5t-205 140.5q-119 0 -204 -140.5t-85 -445.5v2z" />
<glyph unicode="1" horiz-adv-x="720" d="M336 84v1219h-189q-33 -2 -55 20.5t-22 54.5q0 33 22.5 55.5t54.5 22.5l314 2q27 -2 41 -9t14 -42v-1323q0 -47 -24.5 -71.5t-65.5 -24.5t-65.5 24.5t-24.5 69.5v2z" />
<glyph unicode="2" horiz-adv-x="1097" d="M373 156h553q33 -2 55.5 -24.5t22.5 -55.5t-23 -54.5t-55 -21.5h-707q-45 0 -66.5 15.5t-27.5 33.5q-2 6 -3 12.5t-1 10.5v7v5q4 12 12 27.5t27 42.5l504 675q39 47 66.5 101.5t35.5 109.5q2 12 3 23.5t1 21.5q0 100 -66.5 164t-164.5 64q-131 0 -199 -96.5t-68 -233.5 q0 -45 -23.5 -62.5t-49.5 -19.5h-3h-3q-43 0 -66 26.5t-23 84.5q0 182 120 319t345 137q182 0 288 -110.5t106 -251.5q0 -63 -14.5 -136t-86.5 -165z" />
<glyph unicode="3" horiz-adv-x="1097" d="M975 430q0 -209 -135 -325.5t-330 -116.5q-150 0 -243 60.5t-138 133.5q-23 39 -34 75t-11 65q0 47 21.5 73.5t54.5 26.5q41 0 63.5 -23.5t36.5 -70.5q27 -78 85 -132.5t161 -54.5q121 0 198.5 79t77.5 192q0 164 -75.5 218t-178.5 54q-53 0 -81.5 21.5t-28.5 56.5 q0 31 21.5 49t72.5 29q109 25 157 80t48 155q0 104 -56.5 171t-150.5 67q-106 0 -152.5 -64.5t-54.5 -148.5q-4 -43 -20.5 -60.5t-34.5 -21.5q-8 -2 -17 -2h-14q-39 0 -60.5 24.5t-21.5 59.5q0 145 101.5 256.5t281.5 111.5q176 0 277.5 -111.5t101.5 -264.5q0 -90 -43 -173 t-129 -137q123 -37 186.5 -133t63.5 -221v2z" />
<glyph unicode="4" horiz-adv-x="1097" d="M684 375h-582q-45 -2 -61 16.5t-16 44.5q0 20 12 46t33 59l516 848q29 45 61.5 62t79.5 17q59 0 98 -34.5t39 -114.5v-789h92q33 -2 55.5 -24.5t22.5 -54.5q0 -33 -22.5 -55.5t-55.5 -22.5l-92 2v-291q0 -47 -24.5 -71.5t-65.5 -24.5t-65.5 24.5t-24.5 69.5v293zM250 530 h434v748h-4z" />
<glyph unicode="5" horiz-adv-x="1097" d="M467 1303l-59 -396q45 20 93 29.5t99 9.5q170 0 271.5 -136t101.5 -306q0 -236 -126 -376t-347 -140q-127 0 -223.5 46t-143.5 103q-20 23 -31.5 46.5t-11.5 43.5v5v6q4 25 19.5 46t46.5 21h5q3 0 7 -2q25 -4 50.5 -26.5t60.5 -47.5q39 -29 92 -52t131 -23 q131 0 204.5 94t73.5 221q0 129 -59 219t-193 90q-49 0 -87 -8t-66 -18l-53.5 -20.5t-40.5 -8.5q-33 0 -47.5 17.5t-14.5 37.5q0 14 3 39t7 53q2 8 3 15.5t1 13.5l76 512q4 27 19.5 36t48.5 9l506 2q33 -2 55.5 -24.5t22.5 -55.5t-23 -55.5t-55 -22.5z" />
<glyph unicode="6" horiz-adv-x="1097" d="M545 -12q-190 0 -314.5 141t-124.5 358q0 260 119 468t262 354q31 33 64 62l63 56q25 20 42.5 29.5t33.5 11.5h4h4q6 0 12.5 -1t12.5 -5q18 -8 33.5 -27.5t15.5 -50.5q0 -4 -1 -9t-1 -9q-6 -16 -22.5 -33.5t-47.5 -44.5q-4 -4 -9 -8t-9 -8q-43 -41 -81 -81t-77 -89 q-33 -45 -66.5 -98.5t-70.5 -120.5l4 2q2 0 5 1t7 3q47 23 98.5 37t121.5 14q178 0 273 -144.5t95 -334.5q0 -199 -125.5 -336t-320.5 -137zM287 471q0 -129 61.5 -223t194.5 -94t194.5 94t61.5 221q0 145 -61.5 230t-194.5 85t-194.5 -94t-61.5 -221v2z" />
<glyph unicode="7" horiz-adv-x="1024" d="M750 1303h-615q-33 -2 -55.5 20.5t-22.5 54.5q0 33 22.5 55.5t55.5 22.5l739 2q41 -2 67 -14t26 -45q0 -20 -9.5 -45l-25.5 -64l-545 -1237q-14 -35 -35.5 -47t-46.5 -16q-6 -2 -13 -2h-13q-6 0 -12.5 1t-12.5 5q-16 6 -29.5 21.5t-13.5 39.5q0 10 6 34t23 63l510 1146v5 z" />
<glyph unicode="8" horiz-adv-x="1097" d="M176 1137q0 162 112.5 244.5t248.5 86.5h7h5h5h7q135 -4 248 -87t113 -246q0 -117 -46.5 -190t-144.5 -134q127 -29 195.5 -133.5t68.5 -231.5q0 -178 -116.5 -318t-329.5 -140t-330 140t-117 318q0 127 69 231.5t196 133.5q-98 61 -144.5 134t-46.5 190v2zM295 440 q0 -143 77 -221t177 -78q102 0 178 78t76 219q0 113 -63.5 202t-190.5 89q-125 0 -189.5 -89t-64.5 -202v2zM344 1102q0 -96 54.5 -156.5t150.5 -60.5t150.5 60.5t54.5 154.5q0 92 -54.5 152.5t-150.5 60.5t-150.5 -60.5t-54.5 -152.5v2z" />
<glyph unicode="9" horiz-adv-x="1097" d="M553 1470q190 -2 314 -143t124 -360q0 -260 -118.5 -468t-262.5 -354q-31 -33 -63 -62l-64 -56q-25 -20 -42 -28.5t-33 -10.5h-5h-4q-6 0 -12 1t-12 5q-18 6 -33.5 25.5t-15.5 50.5q0 4 1 9t1 9q6 16 22.5 33.5t46.5 44.5q4 4 9.5 8t9.5 8q43 41 81 81t76 89 q33 45 67 98.5t71 120.5l-4 2q-2 -4 -5.5 -5t-7.5 -3q-47 -23 -98 -37t-121 -14q-178 0 -273.5 144.5t-95.5 334.5q0 199 127 337t320 138v2zM811 987q0 125 -61.5 219t-194.5 94t-194.5 -94t-61.5 -221q0 -143 61.5 -229t194.5 -86t194.5 95t61.5 220v2z" />
<glyph unicode=":" d="M152 92q0 41 30.5 72t73.5 31t73.5 -31t30.5 -74t-30.5 -72.5t-73.5 -29.5t-73.5 29.5t-30.5 72.5v2zM152 780q0 41 30.5 72t73.5 31t73.5 -31t30.5 -74t-30.5 -73.5t-73.5 -30.5t-73.5 30.5t-30.5 73.5v2z" />
<glyph unicode=";" d="M68 -104l114 225q16 27 37 50.5t60 23.5q33 0 57 -21.5t24 -56.5v-5v-6q-2 -14 -7 -29.5t-15 -35.5l-115 -223q-14 -29 -34.5 -52.5t-61.5 -23.5q-33 0 -57.5 21.5t-24.5 56.5v5v5q2 14 7.5 30t15.5 36zM152 780q0 41 30.5 72t73.5 31t73.5 -31t30.5 -74t-30.5 -73.5 t-73.5 -30.5t-73.5 30.5t-30.5 73.5v2z" />
<glyph unicode="&#x3c;" horiz-adv-x="1228" d="M307 518l762 -377q2 -4 5 -5t5 -3q20 -10 38 -26.5t18 -45.5q0 -33 -20.5 -53t-47.5 -20q-18 0 -43 10l-57 25l-799 401q-39 18 -56.5 39.5t-17.5 52.5t17.5 52.5t56.5 41.5l799 402l57 24q25 10 43 11q27 0 47.5 -21.5t20.5 -54.5q0 -29 -17.5 -45.5t-38.5 -26.5 q-2 -2 -5 -3t-5 -3z" />
<glyph unicode="=" horiz-adv-x="1228" d="M1044 221h-860q-39 -2 -63.5 18.5t-24.5 63.5t24.5 63.5t63.5 20.5l860 2q39 -2 64 -22.5t25 -63.5t-25 -63.5t-64 -20.5v2zM1044 647h-860q-39 -2 -63.5 18.5t-24.5 63.5t24.5 63.5t63.5 20.5l860 2q39 -2 64 -22.5t25 -63.5t-25 -63.5t-64 -20.5v2z" />
<glyph unicode="&#x3e;" horiz-adv-x="1228" d="M160 141l762 377l-762 377q-2 0 -5 1t-5 3q-20 10 -38 26.5t-18 45.5q0 33 20.5 54.5t47.5 21.5q18 0 42.5 -10.5t57.5 -26.5l799 -398q41 -23 57.5 -44t16.5 -52t-16.5 -52.5t-57.5 -41.5l-799 -397q-33 -16 -57.5 -26.5t-42.5 -10.5q-27 0 -47.5 20.5t-20.5 52.5 q0 29 17.5 45.5t38.5 26.5q2 2 5 3t5 3v2z" />
<glyph unicode="?" horiz-adv-x="909" d="M334 92q0 41 30.5 72t73.5 31t74 -31t31 -74t-31 -72.5t-74 -29.5t-73.5 29.5t-30.5 72.5v2zM528 692v-205q0 -47 -24.5 -72.5t-65.5 -25.5t-65.5 25.5t-24.5 70.5v234q0 57 12.5 81.5t79.5 41.5q10 4 23.5 7t28.5 5q84 16 123.5 56t52.5 85q8 20 10 41t2 39 q0 104 -67.5 164.5t-170.5 60.5q-82 0 -142 -35.5t-95 -131.5q-14 -39 -32.5 -53.5t-47.5 -14.5q-35 0 -61.5 24.5t-26.5 67.5v2q6 129 119.5 214t251.5 95h13h15q186 0 311 -106.5t125 -269.5q0 -166 -95 -267.5t-249 -134.5v2z" />
<glyph unicode="@" horiz-adv-x="1638" d="M1225 1012l-127 -439l-11.5 -44t-5.5 -42q0 -27 13.5 -43t44.5 -16h11q5 0 11 2q92 14 170 134t78 270q0 238 -171 368.5t-390 130.5q-266 0 -442.5 -176t-176.5 -430q0 -266 182.5 -436t454.5 -170q129 0 214 34.5t145 77.5q45 33 79.5 63t67.5 42q8 4 17.5 6t19.5 2 q23 0 37 -12t14 -35q0 -27 -22.5 -57.5t-59.5 -61.5q-68 -55 -172 -105t-215 -73q-35 -6 -69.5 -10t-69.5 -4q-324 0 -551 213t-227 526q0 311 228 526t546 215q291 0 504 -169t213 -441q0 -207 -98.5 -335t-215.5 -185q-53 -25 -103 -37t-91 -12q-61 0 -97 28.5t-47 88.5 l-4 2q-41 -47 -104.5 -83t-130.5 -36q-131 0 -220 95t-89 226v14v15q10 188 136 345t326 157q76 0 138.5 -35t101.5 -119l27 84q10 33 29.5 45t52.5 12q25 0 45 -10t20 -35q0 -10 -3 -25.5t-13 -47.5v2zM545 631q0 -84 49 -135.5t119 -51.5q96 0 155.5 69t89.5 153 q16 49 24.5 94t8.5 78q0 76 -38 111.5t-115 35.5q-119 0 -188.5 -82t-94.5 -180q-4 -25 -7 -48.5t-3 -45.5v2z" />
<glyph unicode="A" horiz-adv-x="1253" d="M289 317l-94 -262q-10 -31 -31 -49t-58 -18q-35 0 -60.5 19.5t-25.5 53.5q0 8 2.5 19.5t6.5 21.5q2 4 3 8.5t1 8.5l7 18q3 8 5 15l453 1208q16 45 46.5 76.5t82.5 31.5q53 0 82.5 -31.5t46.5 -78.5l452 -1204q2 -8 5 -17l8 -18q0 -4 1 -8.5t3 -8.5q4 -10 6 -21t2 -20 q0 -35 -25.5 -54t-60.5 -19q-37 0 -57.5 18.5t-30.5 46.5l-94 264h-676zM909 473l-280 789h-4l-281 -789h565z" />
<glyph unicode="B" horiz-adv-x="1099" d="M119 98v1262q0 39 22.5 67.5t73.5 28.5l317 2q178 -2 276.5 -98t115.5 -211q0 -10 1 -20.5t1 -20.5q0 -119 -56.5 -205t-146.5 -115v-2q133 -16 224 -116.5t91 -245.5q0 -172 -122.5 -298t-354.5 -126h-346q-51 0 -73.5 27.5t-22.5 68.5v2zM299 694v-538h254h7 q128 0 212 72q86 75 86 196q0 113 -78 190.5t-219 77.5zM299 1303v-461h205h7q110 0 171 65q63 68 63 168q0 98 -57 161.5t-178 63.5z" />
<glyph unicode="C" horiz-adv-x="1214" d="M256 729q0 -20 1 -37.5t1 -36.5q16 -193 123.5 -353.5t320.5 -160.5q82 0 142.5 20.5t107.5 45.5l79 45t63 20q33 0 52 -22.5t19 -61.5q0 -10 -3 -20t-9 -21q-35 -59 -161 -109t-290 -50q-315 0 -477 227t-162 512t163 513t487 228q131 0 227 -39.5t147 -89.5 q23 -23 35.5 -44t12.5 -40q0 -35 -19.5 -60.5t-54.5 -25.5q-10 0 -21.5 3.5t-19.5 9.5q-18 10 -36.5 26.5t-43.5 32.5q-37 27 -90 49.5t-137 22.5q-221 0 -330 -161t-125 -353q0 -18 -1 -36t-1 -36v2z" />
<glyph unicode="D" horiz-adv-x="1290" d="M129 98v1262q0 39 22.5 67.5t73.5 28.5l355 2q326 -2 486.5 -218t160.5 -505q0 -328 -165 -531.5t-458 -203.5h-379q-51 0 -73.5 27.5t-22.5 68.5v2zM309 1303v-1147h258h6q251 0 356 177q105 179 105 402q0 225 -110.5 395t-368.5 170z" />
<glyph unicode="E" horiz-adv-x="909" d="M299 645v-477h434q39 -2 63.5 -22.5t24.5 -63.5t-24.5 -62.5t-63.5 -19.5h-518q-51 0 -73.5 27.5t-22.5 68.5v1264q0 39 22.5 67.5t73.5 28.5l518 2q39 -2 63.5 -22.5t24.5 -63.5t-24.5 -63.5t-63.5 -20.5l-434 2v-477h395q39 -2 63.5 -22.5t24.5 -63.5t-24.5 -63.5 t-63.5 -20.5z" />
<glyph unicode="F" horiz-adv-x="833" d="M299 645v-561q0 -47 -24.5 -71.5t-65.5 -24.5t-65.5 24.5t-24.5 69.5v1278q0 39 22.5 67.5t73.5 28.5l512 2q39 -2 63.5 -22.5t24.5 -63.5t-24.5 -63.5t-63.5 -20.5l-428 2v-477h379q39 -2 63.5 -22.5t24.5 -63.5t-24.5 -63.5t-63.5 -20.5z" />
<glyph unicode="G" horiz-adv-x="1366" d="M1145 668h-254q-4 0 -7 -1q-34 0 -57 19q-25 20 -24 64q0 43 24.5 63.5t63.5 20.5l303 2q70 -2 100.5 -34t30.5 -116q0 -264 -125 -481t-498 -217q-315 0 -477 227t-162 512t162 513t504 228q150 0 262.5 -43t173.5 -96q31 -25 47.5 -49.5t16.5 -44.5q0 -35 -23.5 -60.5 t-62.5 -25.5q-6 0 -11.5 1t-9.5 1q-29 8 -58.5 30.5t-68.5 49.5q-47 31 -113.5 56.5t-164.5 25.5q-225 0 -334 -161t-125 -353q0 -18 -1 -36t-1 -36t1 -35.5t1 -36.5q16 -193 125 -353.5t342 -160.5q178 0 280.5 107.5t129.5 236.5q6 23 8 47.5t2 47.5v88z" />
<glyph unicode="H" horiz-adv-x="1366" d="M299 653v-557q0 -55 -24.5 -81.5t-65.5 -26.5t-65.5 26.5t-24.5 79.5v1268q0 51 24.5 78.5t65.5 27.5t65.5 -27.5t24.5 -80.5v-551h768v553q0 51 24.5 78.5t65.5 27.5t65.5 -27.5t24.5 -80.5v-1264q0 -55 -24.5 -81.5t-65.5 -26.5t-65.5 26.5t-24.5 79.5v559h-768z" />
<glyph unicode="I" horiz-adv-x="417" d="M299 1374v-1290q0 -47 -24.5 -71.5t-65.5 -24.5t-65.5 24.5t-24.5 69.5v1292q0 43 24.5 68.5t65.5 25.5t65.5 -25.5t24.5 -70.5v2z" />
<glyph unicode="J" horiz-adv-x="757" d="M459 352v1022q0 43 24.5 68.5t65.5 25.5t65.5 -25.5t24.5 -70.5v-1001q0 -176 -81 -279.5t-273 -103.5q-25 0 -57.5 5t-67.5 13q-66 18 -119 54t-53 90q0 35 18.5 55t50.5 20q20 0 36 -6t30 -16l13 -9l16 -12q23 -14 56.5 -27.5t90.5 -13.5q94 0 127 61.5t33 147.5v2z " />
<glyph unicode="K" horiz-adv-x="1175" d="M299 694v-610q0 -47 -24.5 -71.5t-65.5 -24.5t-65.5 24.5t-24.5 69.5v1292q0 43 24.5 68.5t65.5 25.5t65.5 -25.5t24.5 -70.5v-530l625 571q8 6 16 13.5t16 13.5q14 12 31 20t35 8q35 0 56.5 -21.5t21.5 -55.5q0 -33 -9.5 -49.5t-23.5 -28.5l-3 -3l-1 -1l-598 -537 l653 -631l18 -21q7 -9 11 -18q4 -8 6 -17t2 -19q0 -33 -25.5 -55.5t-62.5 -22.5h-5h-7q-16 2 -33.5 8t-42.5 29z" />
<glyph unicode="L" horiz-adv-x="796" d="M299 1374v-1206h385q39 -2 63.5 -22.5t24.5 -63.5t-24.5 -62.5t-63.5 -19.5h-469q-51 0 -73.5 27.5t-22.5 68.5v1278q0 43 24.5 68.5t65.5 25.5t65.5 -25.5t24.5 -70.5v2z" />
<glyph unicode="M" horiz-adv-x="1708" d="M410 1237l-170 -1171q-6 -49 -34 -63.5t-63 -14.5q-41 0 -62.5 24.5t-21.5 65.5q0 16 3 36l8 46l198 1173q14 76 53 105.5t89 29.5q53 0 84.5 -21.5t46.5 -72.5l311 -1065h4l311 1067q16 49 47 70.5t84 21.5q49 0 88 -29.5t54 -107.5l198 -1169q4 -29 7.5 -48.5 t3.5 -35.5q0 -41 -21.5 -65.5t-62.5 -24.5q-35 0 -62.5 14t-34.5 61l-170 1174h-4l-348 -1176q-14 -47 -37.5 -60t-54.5 -13t-54.5 13t-37.5 58l-348 1178h-4z" />
<glyph unicode="N" horiz-adv-x="1368" d="M299 1141v-1057q0 -47 -24.5 -71.5t-65.5 -24.5t-65.5 24.5t-24.5 69.5v1282q0 51 19.5 77.5t62.5 26.5q23 0 38 -5t31 -19q12 -10 26.5 -27.5t31.5 -42.5l737 -1057h4v1057q0 43 24.5 68.5t65.5 25.5t65.5 -25.5t24.5 -70.5v-1278q0 -55 -19.5 -80.5t-62.5 -25.5 q-20 0 -36.5 5t-32.5 17q-12 10 -26.5 27.5t-31.5 42.5l-737 1061h-4z" />
<glyph unicode="O" horiz-adv-x="1404" d="M63 729q0 283 164 511t475 228t475 -228t164 -513t-163.5 -512t-475.5 -227q-311 0 -475 227t-164 512v2zM256 729q0 -20 1 -37.5t1 -36.5q14 -193 116.5 -353.5t327.5 -160.5t328 161t117 353q0 18 1 36t1 36t-1 35.5t-1 36.5q-14 193 -116.5 353.5t-328.5 160.5 q-225 0 -327.5 -161t-116.5 -353q0 -18 -1 -36t-1 -36v2z" />
<glyph unicode="P" horiz-adv-x="1062" d="M299 545v-461q0 -47 -24.5 -71.5t-65.5 -24.5t-65.5 24.5t-24.5 69.5v1278q0 39 22.5 67.5t73.5 28.5l356 2q219 -2 346 -136t127 -325q0 -190 -133 -322t-333 -132zM299 1303v-603h266h6q129 0 210 85q83 87 83 212q0 10 -1 20.5t-1 20.5q-10 98 -80.5 180t-224.5 82z " />
<glyph unicode="Q" horiz-adv-x="1402" d="M1253 4l-143 141q-76 -76 -178.5 -116.5t-229.5 -40.5q-311 0 -475 227t-164 512t164 513t475 228t475 -228t164 -513q0 -125 -31.5 -243.5t-95.5 -217.5l152 -147q4 -6 7 -9.5t5 -7.5q10 -12 16.5 -26.5t6.5 -30.5q0 -29 -21.5 -51.5t-56.5 -22.5q-20 0 -35.5 8.5 t-25.5 16.5q-2 2 -4.5 3t-4.5 3v2zM993 260l-121 119q-6 4 -11 9t-9 11q-8 10 -12 21.5t-4 23.5q0 35 22.5 58.5t56.5 23.5q10 0 19 -2l16 -4l16 -10q9 -6 17 -16l100 -97q29 59 44.5 130t19.5 143q2 14 2 28v29q0 18 -1 35.5t-1 36.5q-14 193 -116.5 353.5t-328.5 160.5 q-225 0 -327.5 -161t-116.5 -353q0 -18 -1 -36t-1 -36t1 -35.5t1 -36.5q14 -193 116.5 -353.5t327.5 -160.5q94 0 166 31t125 86v2z" />
<glyph unicode="R" horiz-adv-x="1062" d="M299 639v-555q0 -47 -24.5 -71.5t-65.5 -24.5t-65.5 24.5t-24.5 69.5v1278q0 39 22.5 67.5t73.5 28.5l334 2q172 -2 309 -109.5t137 -285.5q0 -221 -116.5 -314.5t-280.5 -99.5h-78l465 -510l10 -13l9 -11q8 -12 12 -26.5t4 -33.5q0 -29 -23.5 -48t-58.5 -19 q-27 0 -46.5 11t-35.5 28zM299 1303v-519h246h9q135 0 197 62q65 63 64 205q0 102 -73.5 175.5t-200.5 73.5z" />
<glyph unicode="S" horiz-adv-x="985" d="M487 1470q135 -2 247 -51t112 -121q0 -33 -21.5 -56t-56.5 -23q-16 0 -28.5 4t-26.5 12q-12 6 -24.5 14l-26.5 17q-29 18 -71 32.5t-110 14.5q-100 0 -165.5 -57.5t-65.5 -149.5q0 -102 80 -151.5t188 -86.5q18 -8 37.5 -14t40.5 -14q129 -47 237.5 -128t108.5 -266 q0 -180 -128 -319t-365 -139h-26q-13 0 -26 2q-133 8 -243.5 55t-110.5 117q0 37 18.5 64.5t57.5 27.5q23 0 51.5 -17.5t69.5 -37.5q39 -23 90 -40.5t121 -17.5q139 0 219 88t80 209q0 115 -87.5 167t-199.5 91q-16 6 -30.5 10.5t-29.5 10.5q-129 45 -237.5 121.5 t-108.5 255.5q0 18 2 37.5t9 37.5q29 113 137 206t282 93v2z" />
<glyph unicode="T" horiz-adv-x="909" d="M365 84v1206h-273h-7q-34 0 -56 19q-25 20 -25 63t24.5 63.5t63.5 20.5l725 2q39 -2 63.5 -22.5t24.5 -63.5t-24.5 -63.5t-63.5 -20.5l-272 2v-1206q0 -47 -24.5 -71.5t-65.5 -24.5t-65.5 24.5t-24.5 69.5v2z" />
<glyph unicode="U" horiz-adv-x="1368" d="M119 578v796q0 43 24.5 68.5t65.5 25.5t65.5 -25.5t24.5 -70.5v-864q0 -174 106.5 -270.5t278.5 -96.5t278.5 96.5t106.5 268.5v868q0 43 24.5 68.5t65.5 25.5t65.5 -25.5t24.5 -70.5v-794q0 -307 -135 -431t-297 -149q-35 -6 -67.5 -8t-65.5 -2t-65.5 2t-67.5 8 q-162 25 -297 148.5t-135 428.5v3z" />
<glyph unicode="V" horiz-adv-x="1138" d="M571 291l369 1063q2 2 3 7t3 9q14 41 34.5 69.5t70.5 28.5q37 0 58 -22.5t21 -50.5q0 -8 -1 -17.5t-1 -17.5l-4 -17q-2 -8 -6 -18l-444 -1239q-14 -47 -36 -72.5t-69 -25.5q-45 0 -66.5 25.5t-37.5 70.5l-445 1243q-2 8 -5 16.5t-3 16.5q-2 8 -3 17t-1 18q0 29 21.5 51 t58.5 22q49 0 69.5 -28.5t35.5 -69.5q2 -4 3 -9t3 -9l368 -1061h4z" />
<glyph unicode="W" horiz-adv-x="1708" d="M426 221l336 1178q12 39 35.5 54t56.5 15q35 0 57.5 -15t34.5 -56l336 -1176h4l191 1165q8 43 32.5 62.5t65.5 19.5q39 0 60.5 -23.5t21.5 -58.5q0 -16 -2 -37.5t-8 -54.5l-222 -1188q-8 -49 -34.5 -83.5t-94.5 -34.5q-51 0 -84.5 20.5t-56.5 95.5l-299 1072h-4 l-299 -1070q-20 -78 -54 -98t-87 -20q-68 0 -93.5 34.5t-35.5 81.5l-222 1192q-6 31 -8 52.5t-2 37.5q0 35 21.5 58.5t60.5 23.5q41 0 65.5 -19t32.5 -65l191 -1163h4z" />
<glyph unicode="X" horiz-adv-x="1216" d="M608 641l-418 -596q-20 -31 -36.5 -42t-32.5 -13q-4 -2 -9 -2h-12q-31 0 -56.5 20.5t-25.5 52.5q0 16 6.5 33t14.5 29q2 4 4 7t4 5l457 647l-381 539q-14 20 -21.5 38.5t-7.5 33.5q0 35 23.5 55t56.5 20q8 0 15.5 -1t15.5 -3q14 -4 29.5 -16t31.5 -37l342 -498l342 500 q18 23 32.5 35t29.5 16q8 2 15 3t15 1q33 0 56.5 -20.5t23.5 -54.5q0 -14 -6 -33t-22 -41l-381 -537l456 -645q2 -4 4.5 -7t4.5 -7q8 -12 14 -28.5t6 -33.5q0 -33 -25.5 -53t-56.5 -20h-11q-5 0 -9 2q-16 2 -32.5 13t-37.5 40z" />
<glyph unicode="Y" horiz-adv-x="1024" d="M422 84v600l-391 637q-12 18 -19.5 33.5t-9.5 29.5v6v5q0 35 24.5 54t57.5 19q25 0 47.5 -11t42.5 -46l338 -549l338 551q20 33 42.5 44t47.5 11q35 0 58.5 -19t23.5 -54v-5v-6q-2 -14 -9 -29.5t-20 -35.5l-391 -635v-600q0 -47 -24.5 -71.5t-65.5 -24.5t-65.5 24.5 t-24.5 69.5v2z" />
<glyph unicode="Z" horiz-adv-x="1138" d="M84 178l750 1125h-662q-4 0 -7 -1q-34 0 -56 18q-25 19 -25 58t24.5 58.5t63.5 19.5l797 2q45 -2 69.5 -21.5t24.5 -43.5q0 -10 -1 -19.5t-3 -17.5q-4 -16 -13.5 -33.5t-27.5 -44.5l-752 -1122h735q39 -2 64 -21.5t25 -58.5t-25 -57.5t-64 -18.5h-845q-57 0 -82 20.5 t-25 59.5v12q0 6 2 12q2 16 10.5 33t22.5 39v2z" />
<glyph unicode="[" horiz-adv-x="493" d="M324 1315v-1327h69q33 0 55.5 -22.5t22.5 -55.5t-22.5 -55.5t-55.5 -22.5h-141q-51 0 -73.5 28.5t-22.5 69.5v1442q0 39 22.5 67.5t73.5 28.5l141 2q33 -2 55.5 -24.5t22.5 -54.5q0 -33 -22.5 -55.5t-55.5 -22.5z" />
<glyph unicode="\" horiz-adv-x="833" d="M629 49l-559 1256q-14 33 -21.5 54t-7.5 34q0 35 22.5 55t57.5 20t54.5 -18t29.5 -43l559 -1253q16 -35 22.5 -57.5t6.5 -35.5q0 -35 -22.5 -54t-57.5 -19t-54.5 17.5t-29.5 41.5v2z" />
<glyph unicode="]" horiz-adv-x="493" d="M170 -12v1327h-70q-33 -2 -55 20.5t-22 55.5t22.5 55t54.5 22l142 2q51 -2 73.5 -30.5t22.5 -69.5v-1440q0 -41 -22.5 -69.5t-73.5 -28.5h-142q-33 0 -55 22.5t-22 55.5t22.5 55.5t54.5 22.5h70z" />
<glyph unicode="^" horiz-adv-x="1228" d="M614 1290l-321 -596q-12 -25 -22.5 -42l-18.5 -29q-12 -16 -26.5 -24.5t-35.5 -8.5q-33 0 -54 19.5t-21 47.5q0 8 2 17.5t6 17.5q4 10 8 19l8 16q2 4 5 9t6 9l358 641q20 33 43.5 57.5t62.5 24.5q41 0 63.5 -24.5t43.5 -59.5l358 -636q2 -6 5 -11.5t6 -9.5l8 -16 q4 -8 8 -19q4 -8 6 -17t2 -18q0 -29 -21.5 -48t-54.5 -19q-20 0 -34.5 8t-26.5 25l-19 29l-22 40z" />
<glyph unicode="_" horiz-adv-x="1024" d="M1024 -256h-1024q-23 0 -40 13.5t-17 37.5q0 25 17 38t40 13h1024q25 0 42 -13t17 -38t-17 -38t-42 -13z" />
<glyph unicode="`" horiz-adv-x="417" d="M289 1262l-236 96q-27 8 -40 19.5t-21 23.5q-4 8 -6 15t-2 16q0 6 2 15t4 17q8 20 25.5 37t43.5 17h3h4q12 0 26 -4.5t37 -14.5l236 -94q27 -12 41 -23.5t22 -23.5q4 -8 6 -15.5t2 -15.5q0 -6 -2 -15l-4 -18q-8 -20 -25.5 -36.5t-46.5 -16.5h-3h-3q-12 0 -26.5 4 t-36.5 15v2z" />
<glyph unicode="a" horiz-adv-x="1138" d="M1020 1014v-938q0 -39 -18.5 -58.5t-40.5 -25.5q-6 -2 -12.5 -3t-12.5 -1q-4 0 -9 1t-12 1q-25 6 -44 25.5t-19 58.5v78h-4q-57 -84 -133 -124t-164 -40q-229 0 -354 169t-125 386t125 387t354 170q94 0 163.5 -38t133.5 -108l4 2v58q0 37 19.5 57.5t43.5 26.5 q6 0 11.5 1t9.5 1q6 0 12 -1t13 -3q23 -6 41 -26.5t18 -57.5v2zM252 545q0 -20 1 -39t3 -37q14 -123 83 -225.5t212 -102.5t211.5 102.5t83.5 225.5q2 18 3 36.5t1 37.5q0 18 -1 36.5t-3 36.5q-14 123 -83 225.5t-212 102.5t-212 -102.5t-83 -225.5q-2 -18 -3 -36.5 t-1 -36.5v2z" />
<glyph unicode="b" horiz-adv-x="1138" d="M127 84v1401q0 43 24.5 68.5t65.5 25.5t65.5 -25.5t24.5 -70.5v-529h4q4 4 10.5 11.5t12.5 13.5q39 45 107.5 83t160.5 38q221 0 343 -170t122 -387t-122 -386t-343 -169q-106 0 -179 36.5t-112 110.5l-4 2v-53q0 -47 -24.5 -71.5t-65.5 -24.5t-65.5 24.5t-24.5 69.5v2z M289 545q0 -20 1 -39t3 -37q14 -123 82.5 -225.5t212.5 -102.5q143 0 211.5 102.5t83.5 225.5q2 18 3 36.5t1 37.5q0 18 -1 36.5t-3 36.5q-14 123 -83 225.5t-212 102.5t-212 -102.5t-83 -225.5q-2 -18 -3 -36.5t-1 -36.5v2z" />
<glyph unicode="c" horiz-adv-x="909" d="M72 545q0 215 121.5 385t369.5 170q139 0 216 -41t77 -96v-4v-3q-2 -27 -22.5 -48t-51.5 -21q-16 0 -29 4l-26 8l-16 8q-8 4 -19 8q-23 10 -52.5 19.5t-76.5 9.5q-145 0 -218 -102.5t-89 -225.5q-2 -18 -3 -36.5t-1 -36.5t1 -37t3 -37q16 -123 89 -225.5t218 -102.5 q47 0 79 9.5t56 21.5q12 6 24.5 13.5t25.5 11.5l16 4q8 2 16 2q31 0 50.5 -19.5t19.5 -56.5v-8q0 -4 -2 -8q-10 -47 -83 -85t-202 -38q-248 0 -369.5 169t-121.5 386v2z" />
<glyph unicode="d" horiz-adv-x="1138" d="M831 84v53h-4q-39 -76 -110.5 -112.5t-179.5 -36.5q-221 0 -343 169t-122 386t121.5 387t343.5 170q94 0 161.5 -38t106.5 -83q6 -6 12 -13.5t10 -13.5l4 2v531q0 43 25 68.5t66 25.5t65.5 -25.5t24.5 -70.5v-1399q0 -47 -24.5 -71.5t-65.5 -24.5t-66 24.5t-25 69.5v2z M850 545q0 16 -1 34.5t-3 36.5q-14 123 -83 225.5t-212 102.5t-212 -102.5t-83 -225.5q-2 -18 -3 -36.5t-1 -36.5t1 -37t3 -37q14 -123 83 -225.5t212 -102.5t211.5 102.5t83.5 225.5q2 18 3 36.5t1 37.5v2z" />
<glyph unicode="e" horiz-adv-x="1064" d="M911 475h-678q0 -141 85 -237.5t237 -96.5q90 0 149.5 23.5t100.5 50.5q37 27 62.5 48.5t50.5 25.5h3h3q25 0 45 -20.5t20 -59.5q0 -16 -10 -35.5t-31 -38.5q-51 -53 -153.5 -97t-212.5 -50h-16h-13q-260 0 -380 169t-120 386q0 221 130 389t360 168q217 0 340 -160 t129 -352v-10v-9q0 -47 -20.5 -71.5t-80.5 -24.5v2zM233 610h598q0 12 -1 26.5t-3 29.5q-14 104 -83.5 191t-200.5 87h-4h-4h-5h-4q-147 0 -213.5 -95t-76.5 -208q0 -8 -1.5 -16.5t-1.5 -16.5v2z" />
<glyph unicode="f" horiz-adv-x="530" d="M356 934v-850q0 -47 -24.5 -71.5t-65.5 -24.5t-65.5 24.5t-24.5 69.5v852h-74h-8q-39 0 -59 18q-23 20 -23 58q0 37 22.5 57t67.5 20l74 3v256q0 117 70.5 175t169.5 58l55 2q4 -2 9 -2t9 -2q31 -4 57.5 -23.5t26.5 -52.5q0 -37 -23.5 -57.5t-74.5 -20.5l-45 2 q-41 -2 -57.5 -20.5t-16.5 -52.5v-262h113q45 -2 67.5 -22.5t22.5 -57.5t-22.5 -57.5t-67.5 -20.5z" />
<glyph unicode="g" horiz-adv-x="1138" d="M1012 1014v-936q0 -244 -135.5 -382t-356.5 -138q-23 0 -46 2t-48 6q-104 16 -195.5 61t-117.5 97q-6 8 -8.5 16t-2.5 16v10q0 5 2 11q4 25 21.5 44t52.5 19h3h1q31 -2 61.5 -21.5t69.5 -41.5q41 -25 94.5 -44.5t127.5 -19.5q152 0 217 87t75 192q2 12 3 26.5t1 28.5v96 h-4q-41 -72 -112.5 -113.5t-163.5 -41.5q-229 0 -354 169t-125 386t125 387t354 170q80 0 152.5 -38t111.5 -83q4 -4 7 -8t5 -8l4 2v49q0 45 30 65.5t67 20.5q6 0 12 -1t12 -3q23 -6 41.5 -26.5t18.5 -57.5v2zM252 545q0 -20 1 -39t3 -37q14 -123 83 -225.5t212 -102.5 t211.5 102.5t83.5 225.5q2 18 3 36.5t1 37.5q0 18 -1 36.5t-3 36.5q-14 123 -83 225.5t-212 102.5t-212 -102.5t-83 -225.5q-2 -18 -3 -36.5t-1 -36.5v2z" />
<glyph unicode="h" horiz-adv-x="1101" d="M803 84v594q0 127 -67.5 190.5t-149.5 73.5q-8 0 -17.5 1t-17.5 1t-17.5 -1t-17.5 -1q-82 -10 -149.5 -73.5t-67.5 -192.5v-592q0 -47 -24.5 -71.5t-65.5 -24.5t-65.5 24.5t-24.5 69.5v1403q0 43 24.5 68.5t65.5 25.5t65.5 -25.5t24.5 -70.5v-520l4 -5q53 66 123 100 t141 40q10 2 20 2h17q20 0 43 -2t45 -8q109 -23 200 -118t91 -286v-602q0 -47 -24.5 -71.5t-65.5 -24.5t-65.5 24.5t-24.5 69.5v2z" />
<glyph unicode="i" horiz-adv-x="417" d="M299 1006v-922q0 -47 -24.5 -71.5t-65.5 -24.5t-65.5 24.5t-24.5 69.5v924q0 43 24.5 68.5t65.5 25.5t65.5 -25.5t24.5 -70.5v2zM98 1360q0 45 33 76.5t78 31.5q47 0 78.5 -31.5t31.5 -78.5q0 -45 -31.5 -78t-78.5 -33q-45 0 -78 33t-33 78v2z" />
<glyph unicode="j" horiz-adv-x="417" d="M299 1006v-1352q0 -45 -24.5 -70.5t-65.5 -25.5t-65.5 25.5t-24.5 70.5v1352q0 43 24.5 68.5t65.5 25.5t65.5 -25.5t24.5 -70.5v2zM98 1360q0 45 33 76.5t78 31.5q47 0 78.5 -31.5t31.5 -78.5q0 -45 -31.5 -78t-78.5 -33q-45 0 -78 33t-33 78v2z" />
<glyph unicode="k" horiz-adv-x="948" d="M119 84v1401q0 43 24.5 68.5t65.5 25.5t65.5 -25.5t24.5 -70.5v-766l393 330q29 23 54.5 38t48.5 15q35 0 55 -22.5t20 -57.5q0 -10 -2 -19.5t-8 -19.5q-4 -10 -13 -19.5t-22 -19.5l-409 -321l475 -469l21 -26q9 -11 14 -22q4 -12 6 -23t2 -24q0 -31 -23.5 -50t-52.5 -19 q-16 0 -28.5 3t-22.5 9q-12 4 -24.5 14.5t-28.5 26.5l-455 477v-434q0 -47 -24.5 -71.5t-65.5 -24.5t-65.5 24.5t-24.5 69.5v2z" />
<glyph unicode="l" horiz-adv-x="417" d="M299 1485v-1401q0 -47 -24.5 -71.5t-65.5 -24.5t-65.5 24.5t-24.5 69.5v1403q0 43 24.5 68.5t65.5 25.5t65.5 -25.5t24.5 -70.5v2z" />
<glyph unicode="m" horiz-adv-x="1708" d="M764 84v610q0 115 -61.5 182.5t-172.5 67.5q-109 0 -170 -67.5t-61 -184.5v-608q0 -47 -24.5 -71.5t-65.5 -24.5t-65.5 24.5t-24.5 69.5v924q0 43 24.5 68.5t65.5 25.5t65.5 -25.5t24.5 -70.5v-31l4 -4l16.5 17t16.5 20q35 35 90 64.5t152 29.5q10 0 20 -1t20 -1 q70 -8 137.5 -49t121.5 -134q59 86 137 135.5t196 49.5q20 0 43 -2t45 -8q109 -23 200 -118t91 -286v-602q0 -47 -24.5 -71.5t-65.5 -24.5t-65.5 24.5t-24.5 69.5v612q0 115 -61.5 182.5t-171.5 67.5q-109 0 -170.5 -67.5t-61.5 -184.5v-608q0 -47 -24.5 -71.5t-65.5 -24.5 t-65.5 24.5t-24.5 69.5v2z" />
<glyph unicode="n" horiz-adv-x="1101" d="M119 84v922q0 43 24.5 68.5t65.5 25.5t65.5 -25.5t24.5 -70.5v-41l4 -5q53 66 123 100t141 40q10 2 20 2h17q20 0 43 -2t45 -8q109 -23 200 -118t91 -286v-602q0 -47 -24.5 -71.5t-65.5 -24.5t-65.5 24.5t-24.5 69.5v596q0 127 -67.5 190.5t-149.5 73.5q-8 0 -17.5 1 t-17.5 1t-17.5 -1t-17.5 -1q-82 -10 -149.5 -73.5t-67.5 -192.5v-592q0 -47 -24.5 -71.5t-65.5 -24.5t-65.5 24.5t-24.5 69.5v2z" />
<glyph unicode="o" horiz-adv-x="1101" d="M72 545q0 215 125 385t354 170q231 0 355 -170t124 -387t-124 -386t-355 -169q-229 0 -354 169t-125 386v2zM252 545q0 -20 1 -39t3 -37q14 -123 83 -225.5t212 -102.5t211.5 102.5t83.5 225.5q2 18 3 36.5t1 37.5q0 18 -1 36.5t-3 36.5q-14 123 -83 225.5t-212 102.5 t-212 -102.5t-83 -225.5q-2 -18 -3 -36.5t-1 -36.5v2z" />
<glyph unicode="p" horiz-adv-x="1138" d="M127 -346v1352q0 43 24.5 68.5t65.5 25.5t65.5 -25.5t24.5 -70.5v-52h4q39 72 112 110t179 38q221 0 343 -170t122 -387t-122 -386t-343 -169q-92 0 -160.5 36.5t-107.5 81.5q-6 6 -12.5 13.5t-10.5 13.5l-4 2v-481q0 -45 -24.5 -70.5t-65.5 -25.5t-65.5 25.5t-24.5 70.5 zM289 545q0 -20 1 -39t3 -37q14 -123 82.5 -225.5t212.5 -102.5q143 0 211.5 102.5t83.5 225.5q2 18 3 36.5t1 37.5q0 18 -1 36.5t-3 36.5q-14 123 -83 225.5t-212 102.5t-212 -102.5t-83 -225.5q-2 -18 -3 -36.5t-1 -36.5v2z" />
<glyph unicode="q" horiz-adv-x="1138" d="M72 545q0 215 121.5 385t343.5 170q109 0 180 -38t110 -112l4 2v54q0 43 25 68.5t66 25.5t65.5 -25.5t24.5 -70.5v-1350q0 -45 -24.5 -70.5t-65.5 -25.5t-66 25.5t-25 70.5v481h-4q-4 -8 -10 -15l-12 -14q-39 -45 -106.5 -81.5t-161.5 -36.5q-221 0 -343 169t-122 386v2z M850 545q0 16 -1 34.5t-3 36.5q-14 123 -83 225.5t-212 102.5t-212 -102.5t-83 -225.5q-2 -18 -3 -36.5t-1 -36.5t1 -37t3 -37q14 -123 83 -225.5t212 -102.5t211.5 102.5t83.5 225.5q2 18 3 36.5t1 37.5v2z" />
<glyph unicode="r" horiz-adv-x="645" d="M119 84v922q0 43 24.5 68.5t65.5 25.5t65.5 -25.5t24.5 -70.5v-91h4q4 8 11.5 18.5t13.5 22.5q37 53 96 99.5t125 46.5q47 0 73.5 -26.5t26.5 -65.5t-27.5 -63.5t-84.5 -35.5q-12 -2 -25.5 -5t-26.5 -9q-70 -25 -128 -93.5t-58 -201.5v-516q0 -47 -24.5 -71.5 t-65.5 -24.5t-65.5 24.5t-24.5 69.5v2z" />
<glyph unicode="s" horiz-adv-x="909" d="M94 795q0 143 110.5 221t244.5 84h8h8q27 0 54.5 -3t55.5 -10q94 -20 173 -67t79 -113q0 -29 -20.5 -51t-61.5 -22q-14 0 -27 5t-26 11q-12 8 -24.5 18.5t-26.5 20.5q-29 20 -70 37.5t-106 17.5q-76 0 -133.5 -33.5t-57.5 -103.5q0 -55 56.5 -91t136.5 -67l49.5 -19 t48.5 -20q109 -43 200 -106.5t91 -181.5q0 -170 -123 -252t-274 -82q-143 0 -252 49t-144 108q-8 12 -11 23.5t-3 24.5q0 37 22.5 59t51.5 22q6 0 12 -1t10 -3q25 -6 49.5 -24.5t55.5 -36.5q39 -27 90 -47.5t125 -20.5q98 0 154.5 46t56.5 102q0 68 -65.5 109.5t-153.5 78.5 q-16 6 -35 15l-37 16q-109 45 -200 108.5t-91 176.5v2z" />
<glyph unicode="t" horiz-adv-x="532" d="M176 1090v235q0 43 24.5 68.5t65.5 25.5t65.5 -25.5t24.5 -70.5v-233h74q45 -2 67.5 -22.5t22.5 -57.5t-22.5 -57.5t-67.5 -20.5l-74 2v-850q0 -47 -24.5 -71.5t-65.5 -24.5t-65.5 24.5t-24.5 69.5v852h-74h-8q-39 0 -59 18q-23 20 -23 58q0 37 22.5 57t67.5 20z" />
<glyph unicode="u" horiz-adv-x="1101" d="M119 422v584q0 43 24.5 68.5t65.5 25.5t65.5 -25.5t24.5 -70.5v-576q0 -141 62.5 -214t189.5 -73t189.5 73t62.5 212v580q0 43 24.5 68.5t65.5 25.5t65.5 -25.5t24.5 -70.5v-582q0 -242 -134 -338t-298 -96t-298 96t-134 336v2z" />
<glyph unicode="v" horiz-adv-x="872" d="M342 66l-313 878l-13.5 40t-5.5 32q0 41 24.5 62.5t57.5 21.5q45 0 64.5 -19.5t29.5 -50.5l248 -751h4l248 753q10 29 29.5 48.5t64.5 19.5q33 0 57.5 -21.5t24.5 -62.5q0 -14 -4 -31.5t-14 -42.5l-314 -876q-14 -41 -32.5 -59.5t-61.5 -18.5t-61.5 18.5t-32.5 56.5v3z " />
<glyph unicode="w" horiz-adv-x="1519" d="M317 82l-299 870q-6 18 -10 36t-4 32q0 4 1 9t1 11q6 23 26.5 41.5t57.5 18.5q29 0 55.5 -16.5t44.5 -75.5l232 -742h4l227 717q2 6 5.5 14.5t5.5 14.5q14 43 33.5 65.5t62.5 22.5t62.5 -22.5t33.5 -65.5l5 -14.5t5 -16.5l228 -715h4l231 744q18 57 45 73.5t56 16.5 q37 0 57 -18.5t26 -41.5q0 -6 1.5 -11t1.5 -9q0 -14 -4.5 -31.5t-10.5 -38.5l-299 -868q-18 -53 -41.5 -73.5t-62.5 -20.5q-37 0 -61.5 20.5t-41.5 71.5l-233 737h-4l-234 -735q-16 -53 -40.5 -73.5t-61.5 -20.5q-39 0 -62.5 20.5t-42.5 71.5v2z" />
<glyph unicode="x" horiz-adv-x="950" d="M49 156l322 422l-283 370q-16 20 -23.5 38t-7.5 32q0 35 21.5 58.5t54.5 23.5q31 0 47.5 -12.5t30.5 -28.5l264 -350l264 352q14 14 30.5 26.5t47.5 12.5q33 0 54.5 -23.5t21.5 -58.5q0 -14 -7 -31.5t-24 -40.5l-282 -368l321 -422q23 -31 30 -51.5t7 -36.5 q0 -33 -23.5 -56.5t-58.5 -23.5q-23 0 -44 9t-36 30l-301 419l-301 -417q-14 -23 -35.5 -32t-44.5 -9q-35 0 -58.5 23.5t-23.5 56.5q0 16 8.5 36.5t28.5 49.5v2z" />
<glyph unicode="y" horiz-adv-x="909" d="M367 39l-308 887q-14 41 -19 61.5t-5 34.5v1q0 36 25.5 56.5t56.5 20.5q35 0 58.5 -19.5t31.5 -48.5l250 -745h4l246 747q10 27 31.5 46.5t54.5 19.5q31 0 56 -20.5t25 -55.5v-2q0 -14 -5 -34.5t-19 -63.5l-455 -1299q-10 -29 -31.5 -48t-56.5 -19q-31 0 -56.5 20.5 t-25.5 54.5v1q0 15 5.5 36t21.5 64z" />
<glyph unicode="z" horiz-adv-x="909" d="M289 156h489q45 -2 67.5 -22.5t22.5 -57.5t-22.5 -56.5t-67.5 -19.5h-649q-45 0 -63.5 14.5t-22.5 34.5q-2 2 -2 5v7v10q0 5 2 9q2 16 10 33.5t25 40.5l520 780h-446h-8q-39 0 -60 18q-23 20 -23 58q0 37 22.5 57t68.5 20l606 3q45 -2 63.5 -17.5t22.5 -36.5q2 -2 2 -5 v-7v-9q0 -5 -2 -9q-2 -16 -10.5 -34t-24.5 -40l-526 -772z" />
<glyph unicode="{" horiz-adv-x="493" d="M156 53v250q0 106 -12.5 177t-84.5 91q-6 2 -11 3t-9 4q-35 12 -51.5 26t-16.5 45q0 35 21.5 50.5t66.5 27.5q72 18 84.5 91t12.5 179v252q0 104 51 161.5t158 57.5l77 2q43 -2 62.5 -17t19.5 -46t-19.5 -46t-62.5 -15l-28 2q-39 -2 -64.5 -28t-25.5 -73v-321 q0 -123 -38 -180.5t-83 -77.5q-18 -6 -34.5 -10.5t-31.5 -6.5v-2q14 -4 30.5 -8t35.5 -10q45 -20 83 -77.5t38 -178.5v-322q0 -47 25.5 -72.5t64.5 -25.5h28q43 0 62.5 -15.5t19.5 -45.5q0 -31 -19.5 -46.5t-62.5 -15.5h-77q-106 0 -157.5 57.5t-51.5 161.5v2z" />
<glyph unicode="|" horiz-adv-x="454" d="M143 76v1417q0 37 20.5 61.5t63.5 24.5t63.5 -24.5t20.5 -63.5v-1415q0 -41 -20.5 -64.5t-63.5 -23.5t-63.5 23.5t-20.5 62.5v2z" />
<glyph unicode="}" horiz-adv-x="493" d="M338 1249v-250q0 -109 12 -179t84 -93q6 -2 11.5 -3t9.5 -3q35 -12 52 -26.5t17 -45.5q0 -33 -21.5 -49t-68.5 -29q-72 -18 -84 -89.5t-12 -180.5v-248q0 -106 -51 -163.5t-158 -57.5h-78q-43 0 -61.5 15.5t-18.5 46.5t18.5 46t61.5 15h29q41 0 65.5 25.5t24.5 70.5v326 q0 119 38 176t83 78q18 6 34.5 10t30.5 6v6q-14 0 -30.5 4.5t-34.5 10.5q-45 20 -83 77.5t-38 178.5v325q0 45 -24.5 71t-65.5 26l-29 2q-43 -2 -61.5 13t-18.5 46t18.5 46t61.5 15l78 2q106 -2 157.5 -59t51.5 -164v2z" />
<glyph unicode="~" horiz-adv-x="1228" d="M131 430v4q4 78 77 146.5t159 81.5q8 0 15 1t15 1q72 0 130.5 -21.5t111.5 -48.5l100 -48q47 -22 86 -22q31 0 51.5 19.5t38.5 44.5l4 3l3 3q18 27 41.5 48.5t60.5 21.5h2q31 -2 51.5 -19.5t20.5 -40.5v-3v-3q-4 -78 -77 -146.5t-159 -80.5q-8 0 -15 -1t-16 -1 q-70 0 -129 21.5t-112 47.5q-51 27 -99.5 48.5t-87.5 21.5q-31 0 -51 -19.5t-39 -44.5l-3 -3l-3 -3q-18 -27 -41.5 -48t-60.5 -21h-2q-31 2 -51.5 20.5t-20.5 38.5v2z" />
<glyph unicode="&#xa0;" />
<glyph unicode="&#xa1;" horiz-adv-x="606" d="M393 602v-887q0 -45 -24.5 -70.5t-65.5 -25.5t-65.5 25.5t-24.5 70.5v887q0 43 24.5 68.5t65.5 25.5t65.5 -25.5t24.5 -70.5v2zM408 997q0 -45 -31 -75.5t-74 -30.5t-73.5 30.5t-30.5 73.5t30.5 74t73.5 31t74 -31t31 -74v2z" />
<glyph unicode="&#xa2;" horiz-adv-x="909" d="M465 -123v121q-199 33 -296 192.5t-97 352.5q0 195 97 354.5t296 194.5v120q0 16 11 28.5t32 12.5q20 0 31.5 -12t11.5 -31v-108q147 -2 226 -43t79 -96v-4v-3q-2 -27 -22.5 -48t-51.5 -21q-14 0 -27.5 3t-25.5 7l-17.5 9t-19.5 9q-25 10 -57.5 19.5t-83.5 9.5v-801 q53 -2 87 7.5t58 21.5l29 14q12 6 25 11q8 4 15 5t15 1q31 0 50.5 -19.5t19.5 -56.5v-8q0 -4 -2 -8q-10 -47 -85 -85t-212 -38v-111q0 -18 -11.5 -30.5t-31.5 -12.5t-31.5 12.5t-11.5 30.5zM465 162v768q-96 -37 -146.5 -126t-62.5 -188q-2 -18 -3 -36.5t-1 -36.5t1 -36 t3 -36q12 -100 62.5 -189t146.5 -122v2z" />
<glyph unicode="&#xa3;" horiz-adv-x="1214" d="M496 815h264q39 -2 63.5 -22.5t24.5 -63.5t-24.5 -63.5t-63.5 -20.5l-223 2q0 -8 1 -13t3 -11q4 -20 7 -48t3 -65t-12.5 -84t-36.5 -94q-23 -45 -54.5 -87t-72.5 -79l690 2q39 -2 63.5 -22.5t24.5 -63.5t-24.5 -62.5t-63.5 -19.5h-819q-43 0 -76 15.5t-33 68.5 q0 33 37 69.5t80 86.5q43 49 80 114.5t37 157.5q0 18 -1 43t-5 49l-5 21l-4 20l-206 2q-39 -2 -64 18.5t-25 63.5t25 63.5t64 20.5l157 2q-2 0 -3 3t-3 5q-35 63 -64.5 134t-29.5 149q0 162 134 262t308 100q154 0 282 -88t171 -194q8 -20 12 -40t4 -40q0 -41 -23.5 -64.5 t-62.5 -23.5q-37 0 -56.5 22.5t-35.5 57.5q-8 14 -15 29l-16 32q-31 53 -85 97t-173 44q-100 0 -182 -52t-82 -154q0 -61 22.5 -114.5t51.5 -102.5q2 -4 4 -7.5t2 -5.5q8 -12 15 -25l14 -26v2z" />
<glyph unicode="&#xa4;" horiz-adv-x="1097" d="M72 352l69 72q-51 55 -75.5 135t-24.5 168t24.5 168t75.5 137l-69 74q-14 14 -21.5 28.5t-7.5 26.5q0 23 14.5 41.5t30.5 26.5l12 4q6 2 13 2q6 0 13 -3t15 -7q4 -2 7 -5l8 -8l86 -86q59 53 139 81t168 28t169 -27.5t138 -83.5l86 90q4 2 7 5.5t7 5.5q8 4 15.5 7t13.5 3 t12 -2l13 -4q16 -8 30.5 -26.5t14.5 -41.5q0 -12 -6.5 -26.5t-22.5 -30.5l-70 -70q51 -59 76 -139t25 -168t-24.5 -168t-76.5 -137l70 -70q16 -16 22.5 -31.5t6.5 -27.5q0 -23 -14.5 -41.5t-30.5 -26.5l-13 -4q-6 -2 -12 -2t-13 3l-16 7q-4 2 -7 5l-7 8l-86 90 q-57 -57 -138 -85t-169 -28t-168 27.5t-139 83.5l-86 -86q-4 -6 -7.5 -9.5t-7.5 -5.5q-8 -4 -15 -7t-13 -3t-13 2l-12 4q-16 8 -30.5 26.5t-14.5 41.5q0 12 7 27.5t22 29.5v2zM209 729q0 -158 101.5 -256t238.5 -98t238.5 98t101.5 254q0 158 -101.5 255t-238.5 97 t-238.5 -97t-101.5 -255v2z" />
<glyph unicode="&#xa5;" horiz-adv-x="1097" d="M459 535v145h-281q-35 -2 -59.5 15.5t-24.5 49.5q0 35 24.5 51.5t59.5 16.5l197 2l-328 506q-8 10 -14 22.5t-10 22.5q-4 8 -5.5 17.5t-1.5 17.5q0 25 18.5 43t39.5 22q4 2 7 2h7q25 0 49.5 -12t44.5 -45l367 -549l366 551q23 31 46.5 43t48.5 12h7q3 0 7 -2 q20 -4 38.5 -22.5t18.5 -42.5q0 -8 -1 -17.5t-5 -17.5q-4 -10 -10 -22.5t-14 -24.5l-328 -504h197q35 -2 59.5 -18.5t24.5 -51.5q0 -33 -25 -50t-59 -17l-281 2v-145h281q35 -2 59.5 -18.5t24.5 -51.5q0 -33 -25 -50.5t-59 -17.5l-281 2v-315q0 -47 -24.5 -71.5t-65.5 -24.5 q-39 0 -64.5 24.5t-25.5 69.5v317h-281q-35 -2 -59.5 15.5t-24.5 50.5q0 35 24.5 51t59.5 16z" />
<glyph unicode="&#xa6;" />
<glyph unicode="&#xa7;" horiz-adv-x="1138" d="M174 1135q0 158 121 245.5t311 87.5q160 0 270.5 -77.5t139.5 -171.5q6 -14 8 -29.5t2 -30.5q0 -35 -20.5 -64.5t-61.5 -29.5q-37 0 -56.5 21.5t-35.5 52.5l-12 24l-13 27q-27 45 -76 84t-157 39q-98 0 -169 -44t-71 -128q0 -76 70 -125t168 -92l62 -28l65 -28 q135 -61 248.5 -151t113.5 -256q0 -102 -63.5 -197.5t-159.5 -148.5q68 -45 100.5 -104.5t32.5 -135.5q0 -139 -118.5 -221t-260.5 -94q-12 -2 -25 -2h-26q-152 2 -253 55t-154 117q-27 35 -41.5 66.5t-14.5 56.5q0 55 26 78.5t64 23.5q37 0 57.5 -20.5t37.5 -49.5 q8 -12 15 -25.5t15 -25.5q29 -45 81 -83t163 -38q123 0 188.5 48.5t65.5 115.5q0 76 -72.5 124t-175.5 91l-63 28l-66 27q-141 61 -259 150.5t-118 253.5q0 137 71 216t179 134q-14 10 -27.5 21.5t-23.5 21.5q-43 39 -62.5 83t-19.5 106v2zM238 567q0 -63 38.5 -109 t110.5 -91l49 -27l56 -29l233 -112q92 68 129 119t45 98q0 10 1 19t1 20q0 51 -15.5 95t-78.5 89q-16 12 -39 24.5t-49 24.5l-256 121q-90 -41 -157.5 -94t-67.5 -150v2z" />
<glyph unicode="&#xa8;" horiz-adv-x="417" d="M-92 1348q2 45 33.5 76.5t76.5 31.5q47 0 79 -31.5t32 -78.5q0 -45 -31.5 -78t-79.5 -33q-45 0 -76.5 32.5t-31.5 78.5zM289 1348q0 45 32.5 76.5t77.5 31.5q47 0 79 -31.5t32 -78.5q0 -45 -32 -78t-79 -33q-45 0 -77.5 32.5t-32.5 78.5v2z" />
<glyph unicode="&#xa9;" horiz-adv-x="1638" d="M819 -12q-307 0 -524 216t-217 523t217 524t524 217t524.5 -217t217.5 -524t-217.5 -523t-524.5 -216zM819 143q233 -2 403.5 170t170.5 414q0 244 -170 415t-404 171q-233 0 -403 -171t-170 -415q0 -242 170 -414t403 -172v2zM557 733q0 -127 71.5 -223t194.5 -96 q82 0 126 29.5t71 64.5q10 12 19.5 25.5t17.5 23.5q14 20 29.5 32.5t37.5 12.5q4 0 9.5 -1t11.5 -1q16 -4 30.5 -16.5t14.5 -38.5q0 -20 -14.5 -53t-42.5 -70q-43 -53 -120 -98t-190 -45q-195 0 -314.5 131t-119.5 321q0 195 117 324t317 129q119 0 198 -45t120 -101 q25 -33 37 -63.5t12 -50.5q0 -27 -18.5 -42.5t-49.5 -15.5t-49 15.5t-35 38.5q-6 10 -12 19t-12 19q-25 33 -67 62t-124 29q-131 0 -198.5 -90.5t-67.5 -227.5v2z" />
<glyph unicode="&#xaa;" horiz-adv-x="739" d="M680 1417v-563q0 -29 -20.5 -42t-47.5 -13t-47 13t-20 40v35h-4q-29 -41 -69 -64.5t-101 -23.5q-143 0 -227.5 97t-84.5 239q0 139 84 236t228 97q61 0 101 -22.5t69 -63.5l4 2v33q0 27 20.5 39t46.5 12q27 0 47.5 -12t20.5 -41v2zM377 924q78 -2 124 62.5t46 148.5 t-46 147.5t-124 63.5t-124 -63.5t-46 -147.5t46 -148.5t124 -64.5v2z" />
<glyph unicode="&#xab;" horiz-adv-x="833" d="M78 549l203 364q14 23 30.5 37.5t38.5 14.5h5h5q27 -4 49.5 -21.5t22.5 -50.5q0 -12 -6 -28.5t-16 -35.5l-170 -280l170 -283q10 -20 16 -36.5t6 -28.5q0 -33 -22.5 -50.5t-49.5 -21.5h-5h-5q-23 0 -39 14.5t-30 38.5zM401 549l203 364q14 23 30.5 37.5t39.5 14.5h5h5 q27 -4 49.5 -21.5t22.5 -50.5q0 -12 -6.5 -28.5t-16.5 -35.5l-170 -280l170 -283q10 -20 16.5 -36.5t6.5 -28.5q0 -33 -22.5 -50.5t-49.5 -21.5h-5h-5q-23 0 -39.5 14.5t-30.5 38.5z" />
<glyph unicode="&#xac;" />
<glyph unicode="&#xad;" horiz-adv-x="1024" />
<glyph unicode="&#xae;" horiz-adv-x="1638" d="M819 -12q-307 0 -524 216t-217 523t217 524t524 217t524.5 -217t217.5 -524t-217.5 -523t-524.5 -216zM819 143q233 -2 403.5 170t170.5 414q0 244 -170 415t-404 171q-233 0 -403 -171t-170 -415q0 -242 170 -414t403 -172v2zM780 657h-131v-292q0 -33 -16.5 -50.5 t-50.5 -17.5q-33 0 -50.5 17.5t-17.5 47.5v738q0 20 11.5 30.5t35.5 10.5l270 2q154 -2 232 -54.5t78 -191.5q0 -119 -61.5 -172t-149.5 -63l182 -277q2 -4 3 -7t3 -5l4 -8l4 -9q2 -8 4.5 -14t2.5 -10q0 -14 -19.5 -23.5t-42.5 -11.5h-7h-7q-31 0 -48.5 10t-33.5 35z M649 780h156q78 -2 139.5 17.5t61.5 109.5q0 68 -50.5 88.5t-109.5 22.5h-13h-16l-168 2v-240z" />
<glyph unicode="&#xaf;" />
<glyph unicode="&#xb0;" />
<glyph unicode="&#xb1;" horiz-adv-x="1228" d="M1044 0h-860q-39 0 -63.5 19.5t-24.5 62.5t24.5 63.5t63.5 20.5l860 2q39 -2 64 -22.5t25 -63.5t-25 -62.5t-64 -19.5zM530 723v225q0 37 20.5 61.5t63.5 24.5t63.5 -24.5t20.5 -63.5v-223h346q39 -2 64 -22.5t25 -63.5t-25 -63.5t-64 -20.5l-346 2v-225 q0 -41 -20.5 -65.5t-63.5 -24.5t-63.5 24.5t-20.5 63.5v227h-346q-39 -2 -63.5 18.5t-24.5 63.5t24.5 63.5t63.5 20.5z" />
<glyph unicode="&#xb2;" />
<glyph unicode="&#xb3;" />
<glyph unicode="&#xb4;" horiz-adv-x="417" d="M365 1358l-236 -96q-23 -12 -37 -16.5t-26 -4.5h-4h-3q-27 0 -44 16.5t-25 36.5q-2 8 -4 17.5t-2 15.5q0 8 2 15.5t6 15.5q8 12 21.5 23.5t39.5 21.5l236 98l37 12.5t26 4.5h3h3q29 0 46.5 -16.5t25.5 -37.5q2 -8 4 -17t2 -15q0 -8 -2 -15.5t-6 -15.5q-8 -12 -22.5 -23.5 t-40.5 -21.5v2z" />
<glyph unicode="&#xb5;" horiz-adv-x="1101" d="M119 -346v1352q0 43 24.5 68.5t65.5 25.5t65.5 -25.5t24.5 -70.5v-576q0 -154 56.5 -220.5t195.5 -66.5t195.5 66.5t56.5 218.5v580q0 43 24.5 68.5t65.5 25.5t65.5 -25.5t24.5 -70.5v-920q0 -47 -24.5 -71.5t-65.5 -24.5q-33 0 -54.5 15t-29.5 42q-53 -33 -118.5 -45 t-139.5 -12q-78 0 -140.5 19.5t-111.5 72.5v-426q0 -45 -24.5 -70.5t-65.5 -25.5t-65.5 25.5t-24.5 70.5z" />
<glyph unicode="&#xb6;" horiz-adv-x="1228" d="M496 -354v1059q-199 -2 -319 104t-120 272q0 164 131 269.5t392 105.5l391 2q51 -2 73.5 -30.5t22.5 -69.5v-1712q0 -39 -20.5 -63.5t-63.5 -24.5t-63.5 24.5t-20.5 63.5v1677h-235v-1677q0 -39 -20.5 -63.5t-63.5 -24.5t-63.5 24.5t-20.5 63.5z" />
<glyph unicode="&#xb7;" />
<glyph unicode="&#xb8;" horiz-adv-x="417" d="M375 0l-60 -86q2 0 5.5 1t5.5 1q6 2 14 3t18 1q53 0 87 -24.5t47 -55.5q4 -8 6 -16t2 -17q0 -94 -64.5 -135t-163.5 -41q-63 0 -106 19.5t-43 52.5v3v3q2 18 12 33.5t31 15.5q10 0 22.5 -3t26.5 -5q6 -2 13.5 -3t13.5 -3q8 0 15 -1t15 -1q37 0 54.5 12.5t17.5 42.5 q0 27 -22.5 32t-67.5 5q-23 0 -36 6t-19 15q-4 6 -5 11t-1 7q0 10 6 23.5t14 27.5l53 76h109z" />
<glyph unicode="&#xb9;" />
<glyph unicode="&#xba;" horiz-adv-x="716" d="M47 1137q0 137 84 234t227 97t227.5 -97t84.5 -236q0 -143 -84 -239.5t-228 -96.5q-143 0 -227 97t-84 239v2zM195 1137q0 -86 45 -150.5t118 -64.5q74 0 119 64.5t45 148.5t-45 147.5t-119 63.5t-118.5 -63.5t-44.5 -147.5v2z" />
<glyph unicode="&#xbb;" horiz-adv-x="833" d="M100 266l170 283l-170 282q-10 16 -16 33t-6 29q0 33 22.5 50.5t49.5 21.5h5h5q23 0 39 -14.5t30 -39.5l203 -362l-203 -365q-14 -27 -30.5 -41t-38.5 -14h-5h-5q-27 4 -49.5 21.5t-22.5 50.5q0 12 6 28.5t16 34.5v2zM424 266l170 283l-170 282q-10 16 -16.5 33t-6.5 29 q0 33 22.5 50.5t49.5 21.5h5h5q23 0 39.5 -14.5t30.5 -39.5l203 -362l-203 -365q-14 -27 -30.5 -41t-39.5 -14h-5h-5q-27 4 -49.5 21.5t-22.5 50.5q0 12 6.5 28.5t16.5 34.5v2z" />
<glyph unicode="&#xbc;" />
<glyph unicode="&#xbd;" horiz-adv-x="1648" d="M352 119l545 1306q14 31 30.5 45.5t41.5 14.5q31 0 48 -13.5t21 -29.5q2 -2 2 -5v-7q0 -12 -5 -31t-23 -62l-545 -1304q-14 -33 -30.5 -47.5t-45.5 -14.5q-31 0 -48 14.5t-19 32.5v4v3q0 12 6 31.5t22 60.5v2zM1133 123h303q35 -2 56 -17.5t21 -46.5q0 -33 -21.5 -46 t-55.5 -13h-447q-25 0 -39 7t-18 20q-2 4 -3 7t-1 7q0 8 5 19.5t19 27.5l351 447q6 6 11 13l9 13q14 23 23.5 44.5t9.5 41.5q0 47 -36 75t-95 28q-63 0 -107.5 -40t-58.5 -87l-4 -21q-2 -10 -2 -20q0 -23 -14.5 -34t-32.5 -16h-6h-7q-33 0 -48 16.5t-15 51.5q0 106 77.5 189 t225.5 83q137 0 203.5 -66.5t66.5 -154.5q0 -31 -7 -56.5t-19 -49.5l-22 -33q-11 -16 -25 -33zM236 1335h-105q-27 -2 -42 13.5t-15 46.5t15 46t42 15l213 2q2 -2 3 -2q15 0 25.5 -6t10.5 -23v-770q0 -41 -21.5 -58t-52.5 -17q-29 0 -51 17t-22 56v680z" />
<glyph unicode="&#xbe;" />
<glyph unicode="&#xbf;" horiz-adv-x="909" d="M381 397v205q0 43 24.5 68.5t65.5 25.5t65.5 -25.5t24.5 -70.5v-229q0 -61 -12 -86t-80 -41q-10 -4 -23.5 -7.5t-27.5 -5.5q-84 -16 -124 -56t-52 -85q-8 -20 -10.5 -40.5t-2.5 -39.5q0 -102 68 -162.5t170 -60.5q82 0 143.5 36t94.5 132q14 39 33.5 52t45.5 13 q35 0 61.5 -23.5t26.5 -66.5v-2q-6 -129 -119.5 -214t-250.5 -95h-14h-15q-186 0 -311 106.5t-125 270.5t95 265t249 134v2zM575 997q0 -45 -30.5 -75.5t-73.5 -30.5t-73.5 30.5t-30.5 73.5t30.5 74t73.5 31t73.5 -31t30.5 -74v2z" />
<glyph unicode="&#xc0;" horiz-adv-x="1253" d="M289 317l-94 -262q-10 -31 -31 -49t-58 -18q-35 0 -60.5 19.5t-25.5 53.5q0 8 2.5 19.5t6.5 21.5q2 4 3 8.5t1 8.5l7 18q3 8 5 15l453 1208q16 45 46.5 76.5t82.5 31.5q53 0 82.5 -31.5t46.5 -78.5l452 -1204q2 -8 5 -17l8 -18q0 -4 1 -8.5t3 -8.5q4 -10 6 -21t2 -20 q0 -35 -25.5 -54t-60.5 -19q-37 0 -57.5 18.5t-30.5 46.5l-94 264h-676zM909 473l-280 789h-4l-281 -789h565zM707 1589l-236 97q-27 8 -41 19t-22 24q-4 8 -6.5 15t-2.5 15q0 6 2 15.5t5 17.5q8 20 26.5 36.5t44.5 16.5h3h3q12 0 26.5 -4t37.5 -14l235 -94 q27 -12 41.5 -23.5t22.5 -23.5q4 -8 6 -15.5t2 -15.5q0 -6 -2 -15.5t-4 -17.5q-8 -20 -25.5 -36.5t-46.5 -16.5h-3h-3q-12 0 -26.5 4t-36.5 14v2z" />
<glyph unicode="&#xc1;" horiz-adv-x="1253" d="M289 317l-94 -262q-10 -31 -31 -49t-58 -18q-35 0 -60.5 19.5t-25.5 53.5q0 8 2.5 19.5t6.5 21.5q2 4 3 8.5t1 8.5l7 18q3 8 5 15l453 1208q16 45 46.5 76.5t82.5 31.5q53 0 82.5 -31.5t46.5 -78.5l452 -1204q2 -8 5 -17l8 -18q0 -4 1 -8.5t3 -8.5q4 -10 6 -21t2 -20 q0 -35 -25.5 -54t-60.5 -19q-37 0 -57.5 18.5t-30.5 46.5l-94 264h-676zM909 473l-280 789h-4l-281 -789h565zM782 1686l-235 -97q-23 -12 -37 -16t-27 -4h-3h-3q-27 0 -45 16.5t-26 36.5l-4.5 17.5t-2.5 15.5q0 8 2 15t7 16q8 12 22 23t41 22l236 98q23 8 37 12t26 4h3h3 q29 0 46.5 -16.5t25.5 -36.5q2 -8 4 -17.5t2 -15.5q0 -8 -2 -15t-6 -15q-8 -12 -22.5 -23.5t-41.5 -22.5v3z" />
<glyph unicode="&#xc2;" horiz-adv-x="1253" d="M289 317l-94 -262q-10 -31 -31 -49t-58 -18q-35 0 -60.5 19.5t-25.5 53.5q0 8 2.5 19.5t6.5 21.5q2 4 3 8.5t1 8.5l7 18q3 8 5 15l453 1208q16 45 46.5 76.5t82.5 31.5q53 0 82.5 -31.5t46.5 -78.5l452 -1204q2 -8 5 -17l8 -18q0 -4 1 -8.5t3 -8.5q4 -10 6 -21t2 -20 q0 -35 -25.5 -54t-60.5 -19q-37 0 -57.5 18.5t-30.5 46.5l-94 264h-676zM909 473l-280 789h-4l-281 -789h565zM362 1720l265 113l264 -113q25 -12 36 -30.5t11 -42.5q0 -33 -19.5 -55.5t-54.5 -22.5q-8 0 -19 2t-26 8l-192 78l-193 -76q-14 -8 -25.5 -10t-19.5 -2 q-33 0 -53.5 22.5t-20.5 55.5q0 25 11.5 43t35.5 28v2z" />
<glyph unicode="&#xc3;" horiz-adv-x="1253" d="M289 317l-94 -262q-10 -31 -31 -49t-58 -18q-35 0 -60.5 19.5t-25.5 53.5q0 8 2.5 19.5t6.5 21.5q2 4 3 8.5t1 8.5l7 18q3 8 5 15l453 1208q16 45 46.5 76.5t82.5 31.5q53 0 82.5 -31.5t46.5 -78.5l452 -1204q2 -8 5 -17l8 -18q0 -4 1 -8.5t3 -8.5q4 -10 6 -21t2 -20 q0 -35 -25.5 -54t-60.5 -19q-37 0 -57.5 18.5t-30.5 46.5l-94 264h-676zM909 473l-280 789h-4l-281 -789h565zM322 1669v1v3q4 45 55 84t135 39q35 0 63.5 -6t55.5 -14q4 -2 9 -3t11 -4q20 -6 41 -10t45 -4q23 0 38.5 6t29.5 15q2 2 4 3l6 3q10 6 22.5 10t26.5 4q4 0 7 -1 t8 -1q18 -6 35.5 -27.5t17.5 -50.5v-3v-3q-4 -45 -55.5 -84t-135.5 -39q-35 0 -63.5 6t-54.5 15q-4 2 -9.5 3t-11.5 3q-20 6 -40.5 10t-45.5 4q-20 0 -36.5 -6t-30.5 -14q-2 -2 -5 -3l-6 -3q-10 -6 -22.5 -10.5t-26.5 -4.5q-4 0 -7 1t-7 1q-18 6 -35.5 28.5t-17.5 49.5v2z " />
<glyph unicode="&#xc4;" horiz-adv-x="1253" d="M289 317l-94 -262q-10 -31 -31 -49t-58 -18q-35 0 -60.5 19.5t-25.5 53.5q0 8 2.5 19.5t6.5 21.5q2 4 3 8.5t1 8.5l7 18q3 8 5 15l453 1208q16 45 46.5 76.5t82.5 31.5q53 0 82.5 -31.5t46.5 -78.5l452 -1204q2 -8 5 -17l8 -18q0 -4 1 -8.5t3 -8.5q4 -10 6 -21t2 -20 q0 -35 -25.5 -54t-60.5 -19q-37 0 -57.5 18.5t-30.5 46.5l-94 264h-676zM909 473l-280 789h-4l-281 -789h565zM326 1675q0 45 32.5 77t77.5 32q47 0 79 -32t32 -79q0 -45 -32 -77.5t-79 -32.5q-45 0 -77.5 32.5t-32.5 77.5v2zM707 1675q0 45 32.5 77t77.5 32q47 0 79 -32 t32 -79q0 -45 -32 -77.5t-79 -32.5q-45 0 -77.5 32.5t-32.5 77.5v2z" />
<glyph unicode="&#xc5;" horiz-adv-x="1253" d="M289 317l-94 -262q-10 -31 -31 -49t-58 -18q-35 0 -60.5 19.5t-25.5 53.5q0 8 2.5 19.5t6.5 21.5q2 4 3 8.5t1 8.5l7 18q3 8 5 15l453 1208q16 45 46.5 76.5t82.5 31.5q53 0 82.5 -31.5t46.5 -78.5l452 -1204q2 -8 5 -17l8 -18q0 -4 1 -8.5t3 -8.5q4 -10 6 -21t2 -20 q0 -35 -25.5 -54t-60.5 -19q-37 0 -57.5 18.5t-30.5 46.5l-94 264h-676zM909 473l-280 789h-4l-281 -789h565zM434 1696q0 78 56.5 134t136.5 56t136 -56t56 -136t-56 -136.5t-136 -56.5t-136.5 56.5t-56.5 136.5v2zM532 1696q0 -41 28 -69t67 -28t66.5 28t27.5 67 t-27.5 66.5t-66.5 27.5t-67 -27.5t-28 -66.5v2z" />
<glyph unicode="&#xc6;" horiz-adv-x="1554" d="M944 645v-477h434q39 -2 63.5 -22.5t24.5 -63.5t-24.5 -62.5t-63.5 -19.5h-518q-51 0 -73.5 27.5t-22.5 68.5v221h-473l-139 -272q-16 -37 -38 -47t-48 -10q-37 0 -59.5 18.5t-22.5 44.5v5v7q2 12 7 27.5t17 44.5l637 1245q6 12 13 23l14 18q18 23 39.5 29t58.5 6l588 2 q39 -2 63.5 -22.5t24.5 -63.5t-24.5 -63.5t-63.5 -20.5l-414 2v-477h395q39 -2 63.5 -22.5t24.5 -63.5t-24.5 -63.5t-63.5 -20.5zM764 473v776h-4l-391 -776h395z" />
<glyph unicode="&#xc7;" horiz-adv-x="1214" d="M743 0l-59 -86q2 0 5 1t5 1q6 2 14.5 3t18.5 1q53 0 87 -24.5t46 -55.5q4 -8 6 -16t2 -17q0 -94 -64.5 -135t-162.5 -41q-63 0 -106 19.5t-43 52.5v3v3q2 18 12 33.5t31 15.5q10 0 22 -3t27 -5q6 -2 13 -3t13 -3q8 0 15.5 -1t15.5 -1q37 0 54.5 12.5t17.5 42.5 q0 27 -22.5 32t-67.5 5q-23 0 -36.5 6t-19.5 15q-4 6 -5 11t-1 7q0 10 6 23.5t15 27.5l53 76h108zM256 729q0 -20 1 -37.5t1 -36.5q16 -193 123.5 -353.5t320.5 -160.5q82 0 142.5 20.5t107.5 45.5l79 45t63 20q33 0 52 -22.5t19 -61.5q0 -10 -3 -20t-9 -21 q-35 -59 -161 -109t-290 -50q-315 0 -477 227t-162 512t163 513t487 228q131 0 227 -39.5t147 -89.5q23 -23 35.5 -44t12.5 -40q0 -35 -19.5 -60.5t-54.5 -25.5q-10 0 -21.5 3.5t-19.5 9.5q-18 10 -36.5 26.5t-43.5 32.5q-37 27 -90 49.5t-137 22.5q-221 0 -330 -161 t-125 -353q0 -18 -1 -36t-1 -36v2z" />
<glyph unicode="&#xc8;" horiz-adv-x="909" d="M299 645v-477h434q39 -2 63.5 -22.5t24.5 -63.5t-24.5 -62.5t-63.5 -19.5h-518q-51 0 -73.5 27.5t-22.5 68.5v1264q0 39 22.5 67.5t73.5 28.5l518 2q39 -2 63.5 -22.5t24.5 -63.5t-24.5 -63.5t-63.5 -20.5l-434 2v-477h395q39 -2 63.5 -22.5t24.5 -63.5t-24.5 -63.5 t-63.5 -20.5zM535 1589l-236 97q-27 8 -41 19t-22 24q-4 8 -6.5 15t-2.5 15q0 6 2 15.5t4 17.5q8 20 27 36.5t45 16.5h3h3q12 0 26.5 -4t37.5 -14l235 -94q27 -12 41.5 -23.5t22.5 -23.5q4 -8 6 -15.5t2 -15.5q0 -6 -2 -15.5t-4 -17.5q-8 -20 -25.5 -36.5t-46.5 -16.5h-3h-3 q-12 0 -26.5 4t-36.5 14v2z" />
<glyph unicode="&#xc9;" horiz-adv-x="909" d="M299 645v-477h434q39 -2 63.5 -22.5t24.5 -63.5t-24.5 -62.5t-63.5 -19.5h-518q-51 0 -73.5 27.5t-22.5 68.5v1264q0 39 22.5 67.5t73.5 28.5l518 2q39 -2 63.5 -22.5t24.5 -63.5t-24.5 -63.5t-63.5 -20.5l-434 2v-477h395q39 -2 63.5 -22.5t24.5 -63.5t-24.5 -63.5 t-63.5 -20.5zM610 1686l-235 -97q-23 -12 -37 -16t-27 -4h-3h-3q-27 0 -45 16.5t-27 36.5q-2 8 -4 17.5t-2 15.5q0 8 2 15t7 16q8 12 22 23t41 22l236 98q23 8 37 12t26 4h3h3q29 0 46.5 -16.5t25.5 -36.5q2 -8 4 -17.5t2 -15.5q0 -8 -2 -15t-6 -15q-8 -12 -22.5 -23.5 t-41.5 -22.5v3z" />
<glyph unicode="&#xca;" horiz-adv-x="909" d="M299 645v-477h434q39 -2 63.5 -22.5t24.5 -63.5t-24.5 -62.5t-63.5 -19.5h-518q-51 0 -73.5 27.5t-22.5 68.5v1264q0 39 22.5 67.5t73.5 28.5l518 2q39 -2 63.5 -22.5t24.5 -63.5t-24.5 -63.5t-63.5 -20.5l-434 2v-477h395q39 -2 63.5 -22.5t24.5 -63.5t-24.5 -63.5 t-63.5 -20.5zM190 1720l265 113l264 -113q25 -12 36 -30.5t11 -42.5q0 -33 -19.5 -55.5t-54.5 -22.5q-8 0 -19 2t-26 8l-192 78l-193 -76q-14 -8 -25.5 -10t-19.5 -2q-33 0 -53.5 22.5t-20.5 55.5q0 25 11.5 43t35.5 28v2z" />
<glyph unicode="&#xcb;" horiz-adv-x="909" d="M299 645v-477h434q39 -2 63.5 -22.5t24.5 -63.5t-24.5 -62.5t-63.5 -19.5h-518q-51 0 -73.5 27.5t-22.5 68.5v1264q0 39 22.5 67.5t73.5 28.5l518 2q39 -2 63.5 -22.5t24.5 -63.5t-24.5 -63.5t-63.5 -20.5l-434 2v-477h395q39 -2 63.5 -22.5t24.5 -63.5t-24.5 -63.5 t-63.5 -20.5zM154 1675q0 45 32.5 77t77.5 32q47 0 79 -32t32 -79q0 -45 -32 -77.5t-79 -32.5q-45 0 -77.5 32.5t-32.5 77.5v2zM535 1675q0 45 32.5 77t77.5 32q47 0 79 -32t32 -79q0 -45 -32 -77.5t-79 -32.5q-45 0 -77.5 32.5t-32.5 77.5v2z" />
<glyph unicode="&#xcc;" horiz-adv-x="417" d="M299 1374v-1290q0 -47 -24.5 -71.5t-65.5 -24.5t-65.5 24.5t-24.5 69.5v1292q0 43 24.5 68.5t65.5 25.5t65.5 -25.5t24.5 -70.5v2zM289 1589l-236 97q-27 8 -40 19t-21 24q-4 8 -6 15t-2 15q0 6 2 15.5t4 17.5q8 20 25.5 36.5t43.5 16.5h3h4q12 0 26 -4t37 -14l236 -94 q27 -12 41 -23.5t22 -23.5q4 -8 6 -15.5t2 -15.5q0 -6 -2 -15.5t-4 -17.5q-8 -20 -25.5 -36.5t-46.5 -16.5h-3h-3q-12 0 -26.5 4t-36.5 14v2z" />
<glyph unicode="&#xcd;" horiz-adv-x="417" d="M299 1374v-1290q0 -47 -24.5 -71.5t-65.5 -24.5t-65.5 24.5t-24.5 69.5v1292q0 43 24.5 68.5t65.5 25.5t65.5 -25.5t24.5 -70.5v2zM365 1686l-236 -97q-23 -12 -37 -16t-26 -4h-4h-3q-27 0 -44 16.5t-25 36.5q-2 8 -4 17.5t-2 15.5q0 8 2 15t6 16q8 12 21.5 23t39.5 22 l236 98q23 8 37 12t26 4h3h3q29 0 46.5 -16.5t25.5 -36.5q2 -8 4 -17.5t2 -15.5q0 -8 -2 -15t-6 -15q-8 -12 -22.5 -23.5t-40.5 -22.5v3z" />
<glyph unicode="&#xce;" horiz-adv-x="417" d="M299 1374v-1290q0 -47 -24.5 -71.5t-65.5 -24.5t-65.5 24.5t-24.5 69.5v1292q0 43 24.5 68.5t65.5 25.5t65.5 -25.5t24.5 -70.5v2zM-55 1720l264 113l264 -113q25 -12 36 -30.5t11 -42.5q0 -33 -19.5 -55.5t-54.5 -22.5q-8 0 -19 2t-26 8l-192 78l-193 -76 q-14 -8 -24 -10t-19 -2q-35 0 -54 22.5t-19 55.5q0 25 11 43t36 28z" />
<glyph unicode="&#xcf;" horiz-adv-x="417" d="M299 1374v-1290q0 -47 -24.5 -71.5t-65.5 -24.5t-65.5 24.5t-24.5 69.5v1292q0 43 24.5 68.5t65.5 25.5t65.5 -25.5t24.5 -70.5v2zM-92 1675q2 45 33.5 77t76.5 32q47 0 79 -32t32 -79q0 -45 -31.5 -77.5t-79.5 -32.5q-45 0 -76.5 32.5t-31.5 77.5zM289 1675 q0 45 32.5 77t77.5 32q47 0 79 -32t32 -79q0 -45 -32 -77.5t-79 -32.5q-45 0 -77.5 32.5t-32.5 77.5v2z" />
<glyph unicode="&#xd0;" horiz-adv-x="1290" d="M129 98v559h-78q-39 -2 -62.5 17.5t-23.5 58.5t23.5 58.5t62.5 19.5l78 2v547q0 39 22.5 67.5t73.5 28.5l355 2q326 -2 486.5 -218t160.5 -505q0 -328 -165 -531.5t-458 -203.5h-379q-51 0 -73.5 27.5t-22.5 68.5v2zM309 657v-501h258q256 -2 361.5 177t105.5 402 q0 225 -110.5 395t-368.5 170l-246 3v-490h246q39 -2 63.5 -21.5t24.5 -58.5t-24.5 -58.5t-63.5 -19.5z" />
<glyph unicode="&#xd1;" horiz-adv-x="1368" d="M299 1141v-1057q0 -47 -24.5 -71.5t-65.5 -24.5t-65.5 24.5t-24.5 69.5v1282q0 51 19.5 77.5t62.5 26.5q23 0 38 -5t31 -19q12 -10 26.5 -27.5t31.5 -42.5l737 -1057h4v1057q0 43 24.5 68.5t65.5 25.5t65.5 -25.5t24.5 -70.5v-1278q0 -55 -19.5 -80.5t-62.5 -25.5 q-20 0 -36.5 5t-32.5 17q-12 10 -26.5 27.5t-31.5 42.5l-737 1061h-4zM379 1669v1v3q4 45 55 84t135 39q35 0 64 -6t55 -14q4 -2 9 -3t12 -4q20 -6 40.5 -10t45.5 -4q23 0 38 6t29 15q2 2 4 3l6 3q10 6 22.5 10t27.5 4q4 0 7 -1t7 -1q18 -6 35.5 -27.5t17.5 -50.5v-3v-3 q-4 -45 -55 -84t-135 -39q-35 0 -63.5 6t-55.5 15q-4 2 -9 3t-12 3q-20 6 -40.5 10t-45.5 4q-20 0 -36.5 -6t-30.5 -14q-2 -2 -4 -3l-6 -3q-10 -6 -22.5 -10.5t-27.5 -4.5q-4 0 -7 1t-7 1q-18 6 -35.5 28.5t-17.5 49.5v2z" />
<glyph unicode="&#xd2;" />
<glyph unicode="&#xd3;" horiz-adv-x="1404" d="M63 729q0 283 164 511t475 228t475 -228t164 -513t-163.5 -512t-475.5 -227q-311 0 -475 227t-164 512v2zM256 729q0 -20 1 -37.5t1 -36.5q14 -193 116.5 -353.5t327.5 -160.5t328 161t117 353q0 18 1 36t1 36t-1 35.5t-1 36.5q-14 193 -116.5 353.5t-328.5 160.5 q-225 0 -327.5 -161t-116.5 -353q0 -18 -1 -36t-1 -36v2zM858 1686l-235 -97q-23 -12 -37.5 -16t-26.5 -4h-3h-3q-27 0 -45.5 16.5t-26.5 36.5q-2 8 -4 17.5t-2 15.5q0 8 2 15t6 16q8 12 22.5 23t41.5 22l235 98q23 8 37.5 12t26.5 4h3h3q29 0 46 -16.5t26 -36.5 q2 -8 4 -17.5t2 -15.5q0 -8 -2 -15t-6 -15q-8 -12 -22.5 -23.5t-41.5 -22.5v3z" />
<glyph unicode="&#xd4;" horiz-adv-x="1404" d="M63 729q0 283 164 511t475 228t475 -228t164 -513t-163.5 -512t-475.5 -227q-311 0 -475 227t-164 512v2zM256 729q0 -20 1 -37.5t1 -36.5q14 -193 116.5 -353.5t327.5 -160.5t328 161t117 353q0 18 1 36t1 36t-1 35.5t-1 36.5q-14 193 -116.5 353.5t-328.5 160.5 q-225 0 -327.5 -161t-116.5 -353q0 -18 -1 -36t-1 -36v2zM438 1720l264 113l265 -113q25 -12 36 -30.5t11 -42.5q0 -33 -19.5 -55.5t-54.5 -22.5q-8 0 -19.5 2t-25.5 8l-193 78l-192 -76q-14 -8 -25.5 -10t-19.5 -2q-33 0 -53.5 22.5t-20.5 55.5q0 25 11.5 43t35.5 28v2z " />
<glyph unicode="&#xd5;" horiz-adv-x="1404" d="M63 729q0 283 164 511t475 228t475 -228t164 -513t-163.5 -512t-475.5 -227q-311 0 -475 227t-164 512v2zM256 729q0 -20 1 -37.5t1 -36.5q14 -193 116.5 -353.5t327.5 -160.5t328 161t117 353q0 18 1 36t1 36t-1 35.5t-1 36.5q-14 193 -116.5 353.5t-328.5 160.5 q-225 0 -327.5 -161t-116.5 -353q0 -18 -1 -36t-1 -36v2zM397 1669v1v3q4 45 55.5 84t135.5 39q35 0 63.5 -6t55.5 -14q4 -2 9 -3t11 -4q20 -6 40.5 -10t45.5 -4q23 0 38 6t30 15q2 2 4 3l6 3q10 6 22.5 10t26.5 4q4 0 7 -1t7 -1q18 -6 36 -27.5t18 -50.5v-3v-3 q-4 -45 -55.5 -84t-135.5 -39q-35 0 -63.5 6t-55.5 15q-4 2 -9 3t-11 3q-20 6 -41 10t-45 4q-20 0 -36.5 -6t-31.5 -14q-2 -2 -4 -3l-6 -3q-10 -6 -22.5 -10.5t-26.5 -4.5q-4 0 -7 1t-7 1q-18 6 -36 28.5t-18 49.5v2z" />
<glyph unicode="&#xd6;" horiz-adv-x="1404" d="M63 729q0 283 164 511t475 228t475 -228t164 -513t-163.5 -512t-475.5 -227q-311 0 -475 227t-164 512v2zM256 729q0 -20 1 -37.5t1 -36.5q14 -193 116.5 -353.5t327.5 -160.5t328 161t117 353q0 18 1 36t1 36t-1 35.5t-1 36.5q-14 193 -116.5 353.5t-328.5 160.5 q-225 0 -327.5 -161t-116.5 -353q0 -18 -1 -36t-1 -36v2zM401 1675q0 45 33 77t78 32q47 0 79 -32t32 -79q0 -45 -32 -77.5t-79 -32.5q-45 0 -78 32.5t-33 77.5v2zM782 1675q0 45 33 77t78 32q47 0 79 -32t32 -79q0 -45 -32 -77.5t-79 -32.5q-45 0 -78 32.5t-33 77.5v2z" />
<glyph unicode="&#xd7;" />
<glyph unicode="&#xd8;" horiz-adv-x="1404" d="M1116 1309l121 143q16 16 31.5 24.5t31.5 8.5h4h3q20 -2 38.5 -16.5t18.5 -41.5q0 -8 -1 -14t-5 -12q-2 -6 -7 -12.5t-12 -14.5l-141 -162q72 -102 107.5 -227t35.5 -258q0 -285 -163.5 -512t-475.5 -227q-129 0 -232 43t-181 119l-125 -146q-10 -12 -26.5 -22.5 t-37.5 -10.5q-25 0 -39 13.5t-18 27.5q-2 2 -2 6v7q0 12 6 26.5t23 34.5l135 160q-70 100 -106 225t-36 256q0 285 164 513t475 228q127 0 231.5 -43t182.5 -118v2zM1079 1073l-682 -797q53 -66 129 -100.5t176 -34.5q225 0 328 161t117 353q0 18 1 36t1 36v30q0 15 -2 29 q-4 76 -20.5 149t-47.5 136v2zM328 389l680 795q-53 57 -128 93t-178 36q-225 0 -327.5 -161t-116.5 -353q0 -18 -1 -36t-1 -36q0 -16 1 -31.5t1 -31.5q4 -72 21.5 -142.5t48.5 -134.5v2z" />
<glyph unicode="&#xd9;" horiz-adv-x="1368" d="M119 578v796q0 43 24.5 68.5t65.5 25.5t65.5 -25.5t24.5 -70.5v-864q0 -174 106.5 -270.5t278.5 -96.5t278.5 96.5t106.5 268.5v868q0 43 24.5 68.5t65.5 25.5t65.5 -25.5t24.5 -70.5v-794q0 -307 -135 -431t-297 -149q-35 -6 -67.5 -8t-65.5 -2t-65.5 2t-67.5 8 q-162 25 -297 148.5t-135 428.5v3zM764 1589l-236 97q-27 8 -41 19t-22 24q-4 8 -6 15t-2 15q0 6 2 15.5t4 17.5q8 20 26.5 36.5t45.5 16.5h3h3q12 0 26.5 -4t36.5 -14l236 -94q27 -12 41 -23.5t22 -23.5q4 -8 6 -15.5t2 -15.5q0 -6 -2 -15.5t-4 -17.5q-8 -20 -25.5 -36.5 t-45.5 -16.5h-4h-3q-12 0 -26.5 4t-36.5 14v2z" />
<glyph unicode="&#xda;" horiz-adv-x="1368" d="M119 578v796q0 43 24.5 68.5t65.5 25.5t65.5 -25.5t24.5 -70.5v-864q0 -174 106.5 -270.5t278.5 -96.5t278.5 96.5t106.5 268.5v868q0 43 24.5 68.5t65.5 25.5t65.5 -25.5t24.5 -70.5v-794q0 -307 -135 -431t-297 -149q-35 -6 -67.5 -8t-65.5 -2t-65.5 2t-67.5 8 q-162 25 -297 148.5t-135 428.5v3zM840 1686l-236 -97q-23 -12 -37 -16t-26 -4h-3h-3q-27 0 -45.5 16.5t-26.5 36.5q-2 8 -4 17.5t-2 15.5q0 8 2 15t6 16q8 12 22.5 23t40.5 22l236 98q23 8 37 12t26 4h3h4q29 0 46 -16.5t25 -36.5q2 -8 4 -17.5t2 -15.5q0 -8 -2 -15t-6 -15 q-8 -12 -22.5 -23.5t-40.5 -22.5v3z" />
<glyph unicode="&#xdb;" horiz-adv-x="1368" d="M119 578v796q0 43 24.5 68.5t65.5 25.5t65.5 -25.5t24.5 -70.5v-864q0 -174 106.5 -270.5t278.5 -96.5t278.5 96.5t106.5 268.5v868q0 43 24.5 68.5t65.5 25.5t65.5 -25.5t24.5 -70.5v-794q0 -307 -135 -431t-297 -149q-35 -6 -67.5 -8t-65.5 -2t-65.5 2t-67.5 8 q-162 25 -297 148.5t-135 428.5v3zM420 1720l264 113l264 -113q25 -12 36 -30.5t11 -42.5q0 -33 -19.5 -55.5t-53.5 -22.5q-8 0 -19.5 2t-25.5 8l-193 78l-192 -76q-14 -8 -25.5 -10t-20.5 -2q-33 0 -53 22.5t-20 55.5q0 25 11 43t36 28v2z" />
<glyph unicode="&#xdc;" horiz-adv-x="1368" d="M119 578v796q0 43 24.5 68.5t65.5 25.5t65.5 -25.5t24.5 -70.5v-864q0 -174 106.5 -270.5t278.5 -96.5t278.5 96.5t106.5 268.5v868q0 43 24.5 68.5t65.5 25.5t65.5 -25.5t24.5 -70.5v-794q0 -307 -135 -431t-297 -149q-35 -6 -67.5 -8t-65.5 -2t-65.5 2t-67.5 8 q-162 25 -297 148.5t-135 428.5v3zM383 1675q0 45 33 77t78 32q47 0 78.5 -32t31.5 -79q0 -45 -31.5 -77.5t-78.5 -32.5q-45 0 -78 32.5t-33 77.5v2zM764 1675q0 45 32.5 77t77.5 32q47 0 79 -32t32 -79q0 -45 -31.5 -77.5t-79.5 -32.5q-45 0 -77.5 32.5t-32.5 77.5v2z" />
<glyph unicode="&#xdd;" />
<glyph unicode="&#xde;" horiz-adv-x="1062" d="M299 319v-235q0 -47 -24.5 -71.5t-65.5 -24.5t-65.5 24.5t-24.5 69.5v1292q0 43 24.5 68.5t65.5 25.5t65.5 -25.5t24.5 -70.5v-143h272q219 -2 346 -136.5t127 -322.5t-133 -320.5t-333 -132.5zM299 1073v-598h266q133 -2 216 84t83 211q0 12 -1 25.5t-3 25.5 q-14 94 -84.5 172t-218.5 78z" />
<glyph unicode="&#xdf;" horiz-adv-x="1138" d="M119 76v1077q0 199 109.5 312.5t283.5 113.5q170 0 276.5 -100.5t126.5 -221.5q2 -14 3.5 -26t1.5 -25q0 -115 -37 -200.5t-121 -143.5q131 -33 202.5 -148.5t71.5 -256.5q0 -20 -2 -42l-4 -42q-25 -145 -127 -265t-272 -120q-63 0 -91 22.5t-28 59.5v5v5q2 25 17.5 46 t50.5 21q156 0 210 89.5t54 228.5q0 145 -73 219t-175 80q-51 4 -71.5 22.5t-20.5 53.5q0 37 14 53t49 29q6 2 13.5 4l15.5 4q6 2 13 4t14 6q45 16 80.5 66.5t35.5 179.5q0 98 -59 167.5t-164 69.5h-5h-7q-76 -4 -140.5 -66.5t-64.5 -240.5v-1040q0 -45 -24.5 -64.5 t-55.5 -23.5h-5h-5h-5h-5q-31 4 -55.5 23.5t-24.5 62.5v2z" />
<glyph unicode="&#xe0;" horiz-adv-x="1138" d="M1020 1014v-938q0 -39 -18.5 -58.5t-40.5 -25.5q-6 -2 -12.5 -3t-12.5 -1q-4 0 -9 1t-12 1q-25 6 -44 25.5t-19 58.5v78h-4q-57 -84 -133 -124t-164 -40q-229 0 -354 169t-125 386t125 387t354 170q94 0 163.5 -38t133.5 -108l4 2v58q0 37 19.5 57.5t43.5 26.5 q6 0 11.5 1t9.5 1q6 0 12 -1t13 -3q23 -6 41 -26.5t18 -57.5v2zM252 545q0 -20 1 -39t3 -37q14 -123 83 -225.5t212 -102.5t211.5 102.5t83.5 225.5q2 18 3 36.5t1 37.5q0 18 -1 36.5t-3 36.5q-14 123 -83 225.5t-212 102.5t-212 -102.5t-83 -225.5q-2 -18 -3 -36.5 t-1 -36.5v2zM649 1262l-235 96q-27 8 -41.5 19.5t-22.5 23.5q-4 8 -6 15t-2 16q0 6 2 15t4 17q8 20 26.5 37t45.5 17h3h3q12 0 26.5 -4.5t36.5 -14.5l236 -94q27 -12 41 -23.5t22 -23.5q4 -8 6.5 -15.5t2.5 -15.5q0 -6 -2 -15l-4 -18q-8 -20 -25.5 -36.5t-46.5 -16.5h-3h-3 q-12 0 -26.5 4t-37.5 15v2z" />
<glyph unicode="&#xe1;" horiz-adv-x="1138" d="M1020 1014v-938q0 -39 -18.5 -58.5t-40.5 -25.5q-6 -2 -12.5 -3t-12.5 -1q-4 0 -9 1t-12 1q-25 6 -44 25.5t-19 58.5v78h-4q-57 -84 -133 -124t-164 -40q-229 0 -354 169t-125 386t125 387t354 170q94 0 163.5 -38t133.5 -108l4 2v58q0 37 19.5 57.5t43.5 26.5 q6 0 11.5 1t9.5 1q6 0 12 -1t13 -3q23 -6 41 -26.5t18 -57.5v2zM252 545q0 -20 1 -39t3 -37q14 -123 83 -225.5t212 -102.5t211.5 102.5t83.5 225.5q2 18 3 36.5t1 37.5q0 18 -1 36.5t-3 36.5q-14 123 -83 225.5t-212 102.5t-212 -102.5t-83 -225.5q-2 -18 -3 -36.5 t-1 -36.5v2zM725 1358l-236 -96q-23 -12 -37 -16.5t-26 -4.5h-3h-3q-27 0 -45.5 16.5t-26.5 36.5q-2 8 -4 17.5t-2 15.5q0 8 2 15.5t6 15.5q8 12 22.5 23.5t41.5 21.5l235 98l37 12.5t27 4.5h3h3q29 0 46 -16.5t26 -37.5q2 -8 4 -17t2 -15q0 -8 -2 -15.5t-7 -15.5 q-8 -12 -22 -23.5t-41 -21.5v2z" />
<glyph unicode="&#xe2;" horiz-adv-x="1138" d="M1020 1014v-938q0 -39 -18.5 -58.5t-40.5 -25.5q-6 -2 -12.5 -3t-12.5 -1q-4 0 -9 1t-12 1q-25 6 -44 25.5t-19 58.5v78h-4q-57 -84 -133 -124t-164 -40q-229 0 -354 169t-125 386t125 387t354 170q94 0 163.5 -38t133.5 -108l4 2v58q0 37 19.5 57.5t43.5 26.5 q6 0 11.5 1t9.5 1q6 0 12 -1t13 -3q23 -6 41 -26.5t18 -57.5v2zM252 545q0 -20 1 -39t3 -37q14 -123 83 -225.5t212 -102.5t211.5 102.5t83.5 225.5q2 18 3 36.5t1 37.5q0 18 -1 36.5t-3 36.5q-14 123 -83 225.5t-212 102.5t-212 -102.5t-83 -225.5q-2 -18 -3 -36.5 t-1 -36.5v2zM305 1393l264 112l265 -112q25 -12 36 -31t11 -43q0 -33 -19.5 -55.5t-54.5 -22.5q-8 0 -19.5 2t-25.5 8l-193 78l-192 -76q-14 -8 -25.5 -10t-19.5 -2q-33 0 -53.5 22.5t-20.5 55.5q0 25 11.5 43t35.5 29v2z" />
<glyph unicode="&#xe3;" horiz-adv-x="1138" d="M1020 1014v-938q0 -39 -18.5 -58.5t-40.5 -25.5q-6 -2 -12.5 -3t-12.5 -1q-4 0 -9 1t-12 1q-25 6 -44 25.5t-19 58.5v78h-4q-57 -84 -133 -124t-164 -40q-229 0 -354 169t-125 386t125 387t354 170q94 0 163.5 -38t133.5 -108l4 2v58q0 37 19.5 57.5t43.5 26.5 q6 0 11.5 1t9.5 1q6 0 12 -1t13 -3q23 -6 41 -26.5t18 -57.5v2zM252 545q0 -20 1 -39t3 -37q14 -123 83 -225.5t212 -102.5t211.5 102.5t83.5 225.5q2 18 3 36.5t1 37.5q0 18 -1 36.5t-3 36.5q-14 123 -83 225.5t-212 102.5t-212 -102.5t-83 -225.5q-2 -18 -3 -36.5 t-1 -36.5v2zM264 1341v1v4q4 45 55.5 83.5t135.5 38.5q35 0 63.5 -6t54.5 -14q4 -2 9.5 -3t11.5 -3q20 -6 40.5 -10.5t45.5 -4.5q23 0 38 6.5t30 14.5q2 2 4 3l6 3q10 6 22.5 10t26.5 4q4 0 7 -1t7 -1q18 -6 35.5 -27.5t17.5 -49.5v-4v-3q-4 -45 -55 -83.5t-135 -38.5 q-35 0 -63.5 6t-55.5 14q-4 2 -9 3t-11 3q-20 6 -41 10t-45 4q-20 0 -36.5 -6t-31.5 -14q-2 -2 -4 -3l-6 -3q-10 -6 -22.5 -10t-26.5 -4q-4 0 -7 1t-8 1q-18 6 -35.5 28.5t-17.5 48.5v2z" />
<glyph unicode="&#xe4;" horiz-adv-x="1138" d="M1020 1014v-938q0 -39 -18.5 -58.5t-40.5 -25.5q-6 -2 -12.5 -3t-12.5 -1q-4 0 -9 1t-12 1q-25 6 -44 25.5t-19 58.5v78h-4q-57 -84 -133 -124t-164 -40q-229 0 -354 169t-125 386t125 387t354 170q94 0 163.5 -38t133.5 -108l4 2v58q0 37 19.5 57.5t43.5 26.5 q6 0 11.5 1t9.5 1q6 0 12 -1t13 -3q23 -6 41 -26.5t18 -57.5v2zM252 545q0 -20 1 -39t3 -37q14 -123 83 -225.5t212 -102.5t211.5 102.5t83.5 225.5q2 18 3 36.5t1 37.5q0 18 -1 36.5t-3 36.5q-14 123 -83 225.5t-212 102.5t-212 -102.5t-83 -225.5q-2 -18 -3 -36.5 t-1 -36.5v2zM268 1348q0 45 33 76.5t78 31.5q47 0 78.5 -31.5t31.5 -78.5q0 -45 -31.5 -78t-78.5 -33q-45 0 -78 32.5t-33 78.5v2zM649 1348q0 45 33 76.5t78 31.5q47 0 78.5 -31.5t31.5 -78.5q0 -45 -31.5 -78t-78.5 -33q-45 0 -78 32.5t-33 78.5v2z" />
<glyph unicode="&#xe5;" horiz-adv-x="1138" d="M1020 1014v-938q0 -39 -18.5 -58.5t-40.5 -25.5q-6 -2 -12.5 -3t-12.5 -1q-4 0 -9 1t-12 1q-25 6 -44 25.5t-19 58.5v78h-4q-57 -84 -133 -124t-164 -40q-229 0 -354 169t-125 386t125 387t354 170q94 0 163.5 -38t133.5 -108l4 2v58q0 37 19.5 57.5t43.5 26.5 q6 0 11.5 1t9.5 1q6 0 12 -1t13 -3q23 -6 41 -26.5t18 -57.5v2zM252 545q0 -20 1 -39t3 -37q14 -123 83 -225.5t212 -102.5t211.5 102.5t83.5 225.5q2 18 3 36.5t1 37.5q0 18 -1 36.5t-3 36.5q-14 123 -83 225.5t-212 102.5t-212 -102.5t-83 -225.5q-2 -18 -3 -36.5 t-1 -36.5v2zM377 1389q0 78 56 134t136 56t136.5 -56.5t56.5 -136.5t-56.5 -136t-136.5 -56t-136 56.5t-56 135.5v3zM475 1389q0 -41 27.5 -69t66.5 -28t67 28t28 66q0 39 -28 67t-67 28t-66.5 -28t-27.5 -67v3z" />
<glyph unicode="&#xe6;" horiz-adv-x="1820" d="M850 76v76h-4q-57 -84 -132 -124t-163 -40q-229 0 -354 169t-125 386t125 387t354 170q94 0 163.5 -38t131.5 -108l4 2v58q0 37 19.5 57.5t43.5 26.5q6 0 11.5 1t9.5 1q6 0 12 -1t12 -3q23 -6 41.5 -26.5t18.5 -57.5v-43h4q6 6 25.5 23.5t48.5 37.5q39 27 94 48.5 t119 21.5q176 0 317 -144.5t141 -386.5q0 -47 -20.5 -71.5t-79.5 -24.5l-666 2v-7v-7q8 -119 90.5 -217.5t231.5 -98.5h5h3q84 2 138.5 23.5t91.5 48.5q29 20 51 38.5t43 27.5l12 4q6 2 12 2q25 0 45.5 -20.5t20.5 -59.5v-2v-1q0 -17 -9.5 -35.5t-25.5 -35.5 q-45 -49 -132 -92t-183 -53q-12 0 -25.5 -1t-26.5 -1q-100 0 -184 31.5t-137 97.5l-4 2v-43q0 -39 -18.5 -58.5t-41.5 -25.5q-6 -2 -12 -3t-12 -1q-4 0 -9 1t-12 1q-25 6 -44 25.5t-19 58.5v2zM252 545q0 -20 1 -39t3 -37q14 -123 83 -225.5t212 -102.5t211.5 102.5 t83.5 225.5q2 18 3 36.5t1 37.5q0 18 -1 36.5t-3 36.5q-14 123 -83 225.5t-212 102.5t-212 -102.5t-83 -225.5q-2 -18 -3 -36.5t-1 -36.5v2zM1014 610h573q0 12 -1 26.5t-3 29.5q-14 104 -83.5 191t-201.5 87q-137 0 -202.5 -87t-77.5 -191q-2 -14 -3 -28.5t-1 -29.5v2z" />
<glyph unicode="&#xe7;" horiz-adv-x="909" d="M590 0l-60 -86q2 0 5.5 1t5.5 1q6 2 14 3t18 1q53 0 87 -24.5t47 -55.5q4 -8 6 -16t2 -17q0 -94 -64.5 -135t-163.5 -41q-63 0 -106 19.5t-43 52.5v3v3q2 18 12 33.5t31 15.5q10 0 22.5 -3t26.5 -5q6 -2 13.5 -3t13.5 -3q8 0 15 -1t15 -1q37 0 54.5 12.5t17.5 42.5 q0 27 -22.5 32t-67.5 5q-23 0 -36 6t-19 15q-4 6 -5 11t-1 7q0 10 6 23.5t14 27.5l53 76h109zM72 545q0 215 121.5 385t369.5 170q139 0 216 -41t77 -96v-4v-3q-2 -27 -22.5 -48t-51.5 -21q-16 0 -29 4l-26 8l-16 8q-8 4 -19 8q-23 10 -52.5 19.5t-76.5 9.5 q-145 0 -218 -102.5t-89 -225.5q-2 -18 -3 -36.5t-1 -36.5t1 -37t3 -37q16 -123 89 -225.5t218 -102.5q47 0 79 9.5t56 21.5q12 6 24.5 13.5t25.5 11.5l16 4q8 2 16 2q31 0 50.5 -19.5t19.5 -56.5v-8q0 -4 -2 -8q-10 -47 -83 -85t-202 -38q-248 0 -369.5 169t-121.5 386v2z " />
<glyph unicode="&#xe8;" horiz-adv-x="1064" d="M911 475h-678q0 -141 85 -237.5t237 -96.5q90 0 149.5 23.5t100.5 50.5q37 27 62.5 48.5t50.5 25.5h3h3q25 0 45 -20.5t20 -59.5q0 -16 -10 -35.5t-31 -38.5q-51 -53 -153.5 -97t-212.5 -50h-16h-13q-260 0 -380 169t-120 386q0 221 130 389t360 168q217 0 340 -160 t129 -352v-10v-9q0 -47 -20.5 -71.5t-80.5 -24.5v2zM233 610h598q0 12 -1 26.5t-3 29.5q-14 104 -83.5 191t-200.5 87h-4h-4h-5h-4q-147 0 -213.5 -95t-76.5 -208q0 -8 -1.5 -16.5t-1.5 -16.5v2zM612 1262l-235 96q-27 8 -41 19.5t-23 23.5q-4 8 -6 15t-2 16q0 6 2 15t4 17 q8 20 26.5 37t45.5 17h3h3q12 0 26.5 -4.5t37.5 -14.5l235 -94q27 -12 41 -23.5t23 -23.5q4 -8 6 -15.5t2 -15.5q0 -6 -2 -15l-4 -18q-8 -20 -25.5 -36.5t-46.5 -16.5h-3h-3q-12 0 -26.5 4t-37.5 15v2z" />
<glyph unicode="&#xe9;" horiz-adv-x="1064" d="M911 475h-678q0 -141 85 -237.5t237 -96.5q90 0 149.5 23.5t100.5 50.5q37 27 62.5 48.5t50.5 25.5h3h3q25 0 45 -20.5t20 -59.5q0 -16 -10 -35.5t-31 -38.5q-51 -53 -153.5 -97t-212.5 -50h-16h-13q-260 0 -380 169t-120 386q0 221 130 389t360 168q217 0 340 -160 t129 -352v-10v-9q0 -47 -20.5 -71.5t-80.5 -24.5v2zM233 610h598q0 12 -1 26.5t-3 29.5q-14 104 -83.5 191t-200.5 87h-4h-4h-5h-4q-147 0 -213.5 -95t-76.5 -208q0 -8 -1.5 -16.5t-1.5 -16.5v2zM688 1358l-235 -96q-23 -12 -37.5 -16.5t-26.5 -4.5h-3h-3q-27 0 -45.5 16.5 t-26.5 36.5q-2 8 -4 17.5t-2 15.5q0 8 2 15.5t6 15.5q8 12 22.5 23.5t41.5 21.5l235 98q23 8 37.5 12.5t26.5 4.5h3h3q29 0 46 -16.5t26 -37.5q2 -8 4 -17t2 -15q0 -8 -2 -15.5t-6 -15.5q-8 -12 -22.5 -23.5t-41.5 -21.5v2z" />
<glyph unicode="&#xea;" horiz-adv-x="1064" d="M911 475h-678q0 -141 85 -237.5t237 -96.5q90 0 149.5 23.5t100.5 50.5q37 27 62.5 48.5t50.5 25.5h3h3q25 0 45 -20.5t20 -59.5q0 -16 -10 -35.5t-31 -38.5q-51 -53 -153.5 -97t-212.5 -50h-16h-13q-260 0 -380 169t-120 386q0 221 130 389t360 168q217 0 340 -160 t129 -352v-10v-9q0 -47 -20.5 -71.5t-80.5 -24.5v2zM233 610h598q0 12 -1 26.5t-3 29.5q-14 104 -83.5 191t-200.5 87h-4h-4h-5h-4q-147 0 -213.5 -95t-76.5 -208q0 -8 -1.5 -16.5t-1.5 -16.5v2zM268 1393l264 112l265 -112q25 -12 36 -31t11 -43q0 -33 -19.5 -55.5 t-54.5 -22.5q-8 0 -19.5 2t-25.5 8l-193 78l-192 -76q-14 -8 -25.5 -10t-19.5 -2q-33 0 -53.5 22.5t-20.5 55.5q0 25 11.5 43t35.5 29v2z" />
<glyph unicode="&#xeb;" horiz-adv-x="1064" d="M911 475h-678q0 -141 85 -237.5t237 -96.5q90 0 149.5 23.5t100.5 50.5q37 27 62.5 48.5t50.5 25.5h3h3q25 0 45 -20.5t20 -59.5q0 -16 -10 -35.5t-31 -38.5q-51 -53 -153.5 -97t-212.5 -50h-16h-13q-260 0 -380 169t-120 386q0 221 130 389t360 168q217 0 340 -160 t129 -352v-10v-9q0 -47 -20.5 -71.5t-80.5 -24.5v2zM233 610h598q0 12 -1 26.5t-3 29.5q-14 104 -83.5 191t-200.5 87h-4h-4h-5h-4q-147 0 -213.5 -95t-76.5 -208q0 -8 -1.5 -16.5t-1.5 -16.5v2zM231 1348q0 45 33 76.5t78 31.5q47 0 79 -31.5t32 -78.5q0 -45 -32 -78 t-79 -33q-45 0 -78 32.5t-33 78.5v2zM612 1348q0 45 33 76.5t78 31.5q47 0 79 -31.5t32 -78.5q0 -45 -32 -78t-79 -33q-45 0 -78 32.5t-33 78.5v2z" />
<glyph unicode="&#xec;" horiz-adv-x="417" d="M299 1006v-922q0 -47 -24.5 -71.5t-65.5 -24.5t-65.5 24.5t-24.5 69.5v924q0 43 24.5 68.5t65.5 25.5t65.5 -25.5t24.5 -70.5v2zM289 1262l-236 96q-27 8 -40 19.5t-21 23.5q-4 8 -6 15t-2 16q0 6 2 15t4 17q8 20 25.5 37t43.5 17h3h4q12 0 26 -4.5t37 -14.5l236 -94 q27 -12 41 -23.5t22 -23.5q4 -8 6 -15.5t2 -15.5q0 -6 -2 -15l-4 -18q-8 -20 -25.5 -36.5t-46.5 -16.5h-3h-3q-12 0 -26.5 4t-36.5 15v2z" />
<glyph unicode="&#xed;" horiz-adv-x="417" d="M299 1006v-922q0 -47 -24.5 -71.5t-65.5 -24.5t-65.5 24.5t-24.5 69.5v924q0 43 24.5 68.5t65.5 25.5t65.5 -25.5t24.5 -70.5v2zM365 1358l-236 -96q-23 -12 -37 -16.5t-26 -4.5h-4h-3q-27 0 -44 16.5t-25 36.5q-2 8 -4 17.5t-2 15.5q0 8 2 15.5t6 15.5q8 12 21.5 23.5 t39.5 21.5l236 98l37 12.5t26 4.5h3h3q29 0 46.5 -16.5t25.5 -37.5q2 -8 4 -17t2 -15q0 -8 -2 -15.5t-6 -15.5q-8 -12 -22.5 -23.5t-40.5 -21.5v2z" />
<glyph unicode="&#xee;" horiz-adv-x="417" d="M299 1006v-922q0 -47 -24.5 -71.5t-65.5 -24.5t-65.5 24.5t-24.5 69.5v924q0 43 24.5 68.5t65.5 25.5t65.5 -25.5t24.5 -70.5v2zM-55 1393l264 112l264 -112q25 -12 36 -31t11 -43q0 -33 -19.5 -55.5t-54.5 -22.5q-8 0 -19 2t-26 8l-192 78l-193 -76q-14 -8 -24 -10 t-19 -2q-35 0 -54 22.5t-19 55.5q0 25 11 43t36 29z" />
<glyph unicode="&#xef;" horiz-adv-x="417" d="M299 1006v-922q0 -47 -24.5 -71.5t-65.5 -24.5t-65.5 24.5t-24.5 69.5v924q0 43 24.5 68.5t65.5 25.5t65.5 -25.5t24.5 -70.5v2zM-92 1348q2 45 33.5 76.5t76.5 31.5q47 0 79 -31.5t32 -78.5q0 -45 -31.5 -78t-79.5 -33q-45 0 -76.5 32.5t-31.5 78.5zM289 1348 q0 45 32.5 76.5t77.5 31.5q47 0 79 -31.5t32 -78.5q0 -45 -32 -78t-79 -33q-45 0 -77.5 32.5t-32.5 78.5v2z" />
<glyph unicode="&#xf0;" horiz-adv-x="1101" d="M72 537q0 207 121.5 378.5t345.5 171.5q10 0 21 -1t22 -1q61 -10 119.5 -40.5t95.5 -79.5l4 6q-33 88 -93.5 165.5t-123.5 135.5q-8 8 -15.5 14l-15.5 12l-178 -84q-20 -12 -34.5 -16t-25.5 -4q-18 0 -33.5 15.5t-15.5 39.5v7q0 3 2 6q2 10 10.5 19t22.5 15l158 78 q-8 4 -16 9l-13 10q-27 16 -51.5 26.5t-44.5 20.5q-31 12 -49.5 28.5t-18.5 47.5q0 29 21.5 46t54.5 17q31 0 75 -15.5t91 -39.5l57 -34q29 -17 53 -36l189 96q18 8 32.5 12.5t26.5 4.5h4h4q16 -2 28.5 -13.5t12.5 -35.5q0 -23 -9 -34t-25 -22q-2 -2 -4.5 -3t-4.5 -1 l-159 -76q180 -164 248.5 -356t68.5 -416q0 -272 -119.5 -447t-371.5 -175q-223 0 -345 171t-122 376v2zM252 537q0 -16 1 -30.5t1 -31.5q14 -125 86 -229.5t211 -104.5t211 104.5t86 229.5q0 16 1 30.5t1 29.5q0 14 -1 28.5t-1 30.5q-14 125 -86 229.5t-211 104.5 t-211 -104.5t-86 -229.5q0 -16 -1 -30.5t-1 -28.5v2z" />
<glyph unicode="&#xf1;" horiz-adv-x="1101" d="M119 84v922q0 43 24.5 68.5t65.5 25.5t65.5 -25.5t24.5 -70.5v-41l4 -5q53 66 123 100t141 40q10 2 20 2h17q20 0 43 -2t45 -8q109 -23 200 -118t91 -286v-602q0 -47 -24.5 -71.5t-65.5 -24.5t-65.5 24.5t-24.5 69.5v596q0 127 -67.5 190.5t-149.5 73.5q-8 0 -17.5 1 t-17.5 1t-17.5 -1t-17.5 -1q-82 -10 -149.5 -73.5t-67.5 -192.5v-592q0 -47 -24.5 -71.5t-65.5 -24.5t-65.5 24.5t-24.5 69.5v2zM246 1341v1v4q4 45 55 83.5t135 38.5q35 0 63.5 -6t55.5 -14q4 -2 9 -3t11 -3q20 -6 41 -10.5t46 -4.5q23 0 38 6.5t29 14.5q2 2 4 3l6 3 q10 6 22.5 10t26.5 4q4 0 7.5 -1t7.5 -1q18 -6 35.5 -27.5t17.5 -49.5v-4v-3q-4 -45 -55 -83.5t-135 -38.5q-35 0 -64 6t-55 14q-4 2 -9.5 3t-11.5 3q-20 6 -40.5 10t-45.5 4q-20 0 -36.5 -6t-30.5 -14q-2 -2 -4 -3l-7 -3q-10 -6 -22 -10t-27 -4q-4 0 -7 1t-7 1 q-18 6 -35.5 28.5t-17.5 48.5v2z" />
<glyph unicode="&#xf2;" horiz-adv-x="1101" d="M72 545q0 215 125 385t354 170q231 0 355 -170t124 -387t-124 -386t-355 -169q-229 0 -354 169t-125 386v2zM252 545q0 -20 1 -39t3 -37q14 -123 83 -225.5t212 -102.5t211.5 102.5t83.5 225.5q2 18 3 36.5t1 37.5q0 18 -1 36.5t-3 36.5q-14 123 -83 225.5t-212 102.5 t-212 -102.5t-83 -225.5q-2 -18 -3 -36.5t-1 -36.5v2zM631 1262l-236 96q-27 8 -41 19.5t-22 23.5q-4 8 -6 15t-2 16q0 6 2 15t4 17q8 20 26.5 37t44.5 17h3h4q12 0 26.5 -4.5t36.5 -14.5l236 -94q27 -12 41 -23.5t22 -23.5q4 -8 6 -15.5t2 -15.5q0 -6 -2 -15l-4 -18 q-8 -20 -25.5 -36.5t-46.5 -16.5h-3h-3q-12 0 -26.5 4t-36.5 15v2z" />
<glyph unicode="&#xf3;" horiz-adv-x="1101" d="M72 545q0 215 125 385t354 170q231 0 355 -170t124 -387t-124 -386t-355 -169q-229 0 -354 169t-125 386v2zM252 545q0 -20 1 -39t3 -37q14 -123 83 -225.5t212 -102.5t211.5 102.5t83.5 225.5q2 18 3 36.5t1 37.5q0 18 -1 36.5t-3 36.5q-14 123 -83 225.5t-212 102.5 t-212 -102.5t-83 -225.5q-2 -18 -3 -36.5t-1 -36.5v2zM707 1358l-236 -96q-23 -12 -37 -16.5t-26 -4.5h-4h-3q-27 0 -45 16.5t-26 36.5q-2 8 -4 17.5t-2 15.5q0 8 2 15.5t6 15.5q8 12 22.5 23.5t40.5 21.5l236 98l37 12.5t26 4.5h3h3q29 0 46.5 -16.5t25.5 -37.5q2 -8 4 -17 t2 -15q0 -8 -2 -15.5t-6 -15.5q-8 -12 -22.5 -23.5t-40.5 -21.5v2z" />
<glyph unicode="&#xf4;" horiz-adv-x="1101" d="M72 545q0 215 125 385t354 170q231 0 355 -170t124 -387t-124 -386t-355 -169q-229 0 -354 169t-125 386v2zM252 545q0 -20 1 -39t3 -37q14 -123 83 -225.5t212 -102.5t211.5 102.5t83.5 225.5q2 18 3 36.5t1 37.5q0 18 -1 36.5t-3 36.5q-14 123 -83 225.5t-212 102.5 t-212 -102.5t-83 -225.5q-2 -18 -3 -36.5t-1 -36.5v2zM287 1393l264 112l264 -112q25 -12 36 -31t11 -43q0 -33 -19.5 -55.5t-54.5 -22.5q-8 0 -19 2t-26 8l-192 78l-193 -76q-14 -8 -25 -10t-20 -2q-33 0 -53 22.5t-20 55.5q0 25 11 43t36 29v2z" />
<glyph unicode="&#xf5;" horiz-adv-x="1101" d="M72 545q0 215 125 385t354 170q231 0 355 -170t124 -387t-124 -386t-355 -169q-229 0 -354 169t-125 386v2zM252 545q0 -20 1 -39t3 -37q14 -123 83 -225.5t212 -102.5t211.5 102.5t83.5 225.5q2 18 3 36.5t1 37.5q0 18 -1 36.5t-3 36.5q-14 123 -83 225.5t-212 102.5 t-212 -102.5t-83 -225.5q-2 -18 -3 -36.5t-1 -36.5v2zM246 1341v1v4q4 45 55 83.5t135 38.5q35 0 63.5 -6t55.5 -14q4 -2 9 -3t11 -3q20 -6 41 -10.5t46 -4.5q23 0 38 6.5t29 14.5q2 2 4 3l6 3q10 6 22.5 10t26.5 4q4 0 7.5 -1t7.5 -1q18 -6 35.5 -27.5t17.5 -49.5v-4v-3 q-4 -45 -55 -83.5t-135 -38.5q-35 0 -64 6t-55 14q-4 2 -9.5 3t-11.5 3q-20 6 -40.5 10t-45.5 4q-20 0 -36.5 -6t-30.5 -14q-2 -2 -4 -3l-7 -3q-10 -6 -22 -10t-27 -4q-4 0 -7 1t-7 1q-18 6 -35.5 28.5t-17.5 48.5v2z" />
<glyph unicode="&#xf6;" horiz-adv-x="1101" d="M72 545q0 215 125 385t354 170q231 0 355 -170t124 -387t-124 -386t-355 -169q-229 0 -354 169t-125 386v2zM252 545q0 -20 1 -39t3 -37q14 -123 83 -225.5t212 -102.5t211.5 102.5t83.5 225.5q2 18 3 36.5t1 37.5q0 18 -1 36.5t-3 36.5q-14 123 -83 225.5t-212 102.5 t-212 -102.5t-83 -225.5q-2 -18 -3 -36.5t-1 -36.5v2zM250 1348q0 45 32.5 76.5t77.5 31.5q47 0 79 -31.5t32 -78.5q0 -45 -31.5 -78t-79.5 -33q-45 0 -77.5 32.5t-32.5 78.5v2zM631 1348q0 45 32.5 76.5t77.5 31.5q47 0 79 -31.5t32 -78.5q0 -45 -32 -78t-79 -33 q-45 0 -77.5 32.5t-32.5 78.5v2z" />
<glyph unicode="&#xf7;" />
<glyph unicode="&#xf8;" horiz-adv-x="1101" d="M84 80l92 110q-51 70 -77.5 162t-26.5 191q0 217 125 387t354 170q90 0 163.5 -29t129.5 -76l84 105q12 14 27.5 25.5t35.5 11.5q27 0 45.5 -16.5t18.5 -41.5q0 -12 -3 -21t-8 -18l-8 -12q-4 -6 -10 -12l-98 -115q51 -78 76.5 -170t25.5 -188q0 -217 -124 -386t-355 -169 q-88 0 -161 26.5t-130 77.5l-86 -102q-14 -18 -29.5 -28.5t-35.5 -10.5q-27 0 -44.5 17.5t-17.5 37.5v8q0 4 2 9q2 12 11.5 25t23.5 30v2zM809 758l-447 -539q35 -37 82.5 -57.5t106.5 -20.5q143 0 211.5 102.5t83.5 225.5q2 18 3 36.5t1 37.5q0 23 -1 45t-5 47 q-4 31 -13.5 61.5t-21.5 59.5v2zM293 332l446 538q-33 33 -81 53.5t-107 20.5q-143 0 -212 -102.5t-83 -225.5q-2 -18 -3 -36.5t-1 -36.5q0 -14 1 -30.5t3 -31.5q2 -39 12.5 -77.5t24.5 -73.5v2z" />
<glyph unicode="&#xf9;" horiz-adv-x="1101" d="M119 422v584q0 43 24.5 68.5t65.5 25.5t65.5 -25.5t24.5 -70.5v-576q0 -141 62.5 -214t189.5 -73t189.5 73t62.5 212v580q0 43 24.5 68.5t65.5 25.5t65.5 -25.5t24.5 -70.5v-582q0 -242 -134 -338t-298 -96t-298 96t-134 336v2zM631 1262l-236 96q-27 8 -41 19.5 t-22 23.5q-4 8 -6 15t-2 16q0 6 2 15t4 17q8 20 26.5 37t44.5 17h3h4q12 0 26.5 -4.5t36.5 -14.5l236 -94q27 -12 41 -23.5t22 -23.5q4 -8 6 -15.5t2 -15.5q0 -6 -2 -15l-4 -18q-8 -20 -25.5 -36.5t-46.5 -16.5h-3h-3q-12 0 -26.5 4t-36.5 15v2z" />
<glyph unicode="&#xfa;" horiz-adv-x="1101" d="M119 422v584q0 43 24.5 68.5t65.5 25.5t65.5 -25.5t24.5 -70.5v-576q0 -141 62.5 -214t189.5 -73t189.5 73t62.5 212v580q0 43 24.5 68.5t65.5 25.5t65.5 -25.5t24.5 -70.5v-582q0 -242 -134 -338t-298 -96t-298 96t-134 336v2zM707 1358l-236 -96q-23 -12 -37 -16.5 t-26 -4.5h-4h-3q-27 0 -45 16.5t-26 36.5q-2 8 -4 17.5t-2 15.5q0 8 2 15.5t6 15.5q8 12 22.5 23.5t40.5 21.5l236 98l37 12.5t26 4.5h3h3q29 0 46.5 -16.5t25.5 -37.5q2 -8 4 -17t2 -15q0 -8 -2 -15.5t-6 -15.5q-8 -12 -22.5 -23.5t-40.5 -21.5v2z" />
<glyph unicode="&#xfb;" horiz-adv-x="1101" d="M119 422v584q0 43 24.5 68.5t65.5 25.5t65.5 -25.5t24.5 -70.5v-576q0 -141 62.5 -214t189.5 -73t189.5 73t62.5 212v580q0 43 24.5 68.5t65.5 25.5t65.5 -25.5t24.5 -70.5v-582q0 -242 -134 -338t-298 -96t-298 96t-134 336v2zM287 1393l264 112l264 -112q25 -12 36 -31 t11 -43q0 -33 -19.5 -55.5t-54.5 -22.5q-8 0 -19 2t-26 8l-192 78l-193 -76q-14 -8 -25 -10t-20 -2q-33 0 -53 22.5t-20 55.5q0 25 11 43t36 29v2z" />
<glyph unicode="&#xfc;" horiz-adv-x="1101" d="M119 422v584q0 43 24.5 68.5t65.5 25.5t65.5 -25.5t24.5 -70.5v-576q0 -141 62.5 -214t189.5 -73t189.5 73t62.5 212v580q0 43 24.5 68.5t65.5 25.5t65.5 -25.5t24.5 -70.5v-582q0 -242 -134 -338t-298 -96t-298 96t-134 336v2zM250 1348q0 45 32.5 76.5t77.5 31.5 q47 0 79 -31.5t32 -78.5q0 -45 -31.5 -78t-79.5 -33q-45 0 -77.5 32.5t-32.5 78.5v2zM631 1348q0 45 32.5 76.5t77.5 31.5q47 0 79 -31.5t32 -78.5q0 -45 -32 -78t-79 -33q-45 0 -77.5 32.5t-32.5 78.5v2z" />
<glyph unicode="&#xfd;" />
<glyph unicode="&#xfe;" horiz-adv-x="1138" d="M127 -346v1831q0 43 24.5 68.5t65.5 25.5t65.5 -25.5t24.5 -70.5v-531h4q39 72 112 110t179 38q221 0 343 -170t122 -387t-122 -386t-343 -169q-92 0 -160.5 36.5t-107.5 81.5q-6 6 -12.5 13.5t-10.5 13.5l-4 2v-481q0 -45 -24.5 -70.5t-65.5 -25.5t-65.5 25.5 t-24.5 70.5zM289 545q0 -20 1 -39t3 -37q14 -123 82.5 -225.5t212.5 -102.5q143 0 211.5 102.5t83.5 225.5q2 18 3 36.5t1 37.5q0 18 -1 36.5t-3 36.5q-14 123 -83 225.5t-212 102.5t-212 -102.5t-83 -225.5q-2 -18 -3 -36.5t-1 -36.5v2z" />
<glyph unicode="&#xff;" horiz-adv-x="909" d="M367 39l-308 887q-14 41 -19 61.5t-5 34.5v1q0 36 25.5 56.5t56.5 20.5q35 0 58.5 -19.5t31.5 -48.5l250 -745h4l246 747q10 27 31.5 46.5t54.5 19.5q31 0 56 -20.5t25 -55.5v-2q0 -14 -5 -34.5t-19 -63.5l-455 -1299q-10 -29 -31.5 -48t-56.5 -19q-31 0 -56.5 20.5 t-25.5 54.5v1q0 15 5.5 36t21.5 64zM154 1348q0 45 32.5 76.5t77.5 31.5q47 0 79 -31.5t32 -78.5q0 -45 -32 -78t-79 -33q-45 0 -77.5 32.5t-32.5 78.5v2zM535 1348q0 45 32.5 76.5t77.5 31.5q47 0 79 -31.5t32 -78.5q0 -45 -32 -78t-79 -33q-45 0 -77.5 32.5t-32.5 78.5v2z " />
<glyph unicode="&#x152;" horiz-adv-x="1896" d="M1135 98v115h-5q-68 -98 -181 -161.5t-247 -63.5q-311 0 -475 227t-164 512t164 513t475 228q137 0 245 -57t188 -147v96q0 39 22.5 67.5t73.5 28.5l493 2q39 -2 63.5 -22.5t24.5 -63.5t-24.5 -63.5t-63.5 -20.5l-409 2v-477h395q39 -2 63.5 -22.5t24.5 -63.5 t-24.5 -63.5t-63.5 -20.5l-395 2v-477h430q39 -2 63.5 -22.5t24.5 -63.5t-24.5 -62.5t-63.5 -19.5h-514q-51 0 -73.5 27.5t-22.5 68.5v2zM256 729q0 -20 1 -37.5t1 -36.5q14 -193 116.5 -353.5t327.5 -160.5t328 161t117 353q0 18 1 36t1 36t-1 35.5t-1 36.5 q-14 193 -116.5 353.5t-328.5 160.5q-225 0 -327.5 -161t-116.5 -353q0 -18 -1 -36t-1 -36v2z" />
<glyph unicode="&#x153;" horiz-adv-x="1857" d="M72 545q0 215 123.5 385t349.5 170q127 0 228 -58.5t167 -154.5q55 96 155.5 154.5t229.5 58.5q225 0 349 -160t130 -352v-10v-9q0 -47 -20.5 -71.5t-79.5 -24.5l-678 2q0 -139 85 -234.5t245 -95.5h4h3q85 2 140.5 23.5t93.5 48.5q29 20 51.5 38.5t45.5 27.5q6 2 11 4 t11 2q25 0 45.5 -20.5t20.5 -59.5v-2v-1q0 -17 -10.5 -35.5t-26.5 -35.5q-51 -53 -150.5 -97t-210.5 -50h-15h-13q-152 0 -256.5 58t-159.5 153q-66 -92 -167 -151.5t-228 -59.5q-225 0 -349 169t-124 386v2zM549 946q-143 -2 -211 -104.5t-82 -225.5q-2 -18 -3 -36.5 t-1 -36.5t1 -37t3 -37q14 -123 82 -225.5t211 -102.5t210.5 102.5t82.5 225.5q2 18 3 36.5t1 37.5q0 18 -1 36.5t-3 36.5q-14 123 -82 225.5t-211 102.5v2zM1026 610h598q0 12 -1 26.5t-3 29.5q-14 104 -86 191t-209 87t-209 -87t-86 -191q-2 -14 -3 -28.5t-1 -29.5v2z" />
<glyph unicode="&#x178;" horiz-adv-x="1024" d="M422 84v600l-391 637q-12 18 -19.5 33.5t-9.5 29.5v6v5q0 35 24.5 54t57.5 19q25 0 47.5 -11t42.5 -46l338 -549l338 551q20 33 42.5 44t47.5 11q35 0 58.5 -19t23.5 -54v-5v-6q-2 -14 -9 -29.5t-20 -35.5l-391 -635v-600q0 -47 -24.5 -71.5t-65.5 -24.5t-65.5 24.5 t-24.5 69.5v2zM211 1675q0 45 32.5 77t78.5 32q47 0 78.5 -32t31.5 -79q0 -45 -31.5 -77.5t-78.5 -32.5q-45 0 -78 32.5t-33 77.5v2zM592 1675q0 45 32.5 77t77.5 32q47 0 79 -32t32 -79q0 -45 -31.5 -77.5t-79.5 -32.5q-45 0 -77.5 32.5t-32.5 77.5v2z" />
<glyph unicode="&#x2c6;" horiz-adv-x="417" d="M-96 1341q2 0 2 1v4q4 45 54 83.5t134 38.5q35 0 63.5 -6t55.5 -14q4 -2 9 -3t11 -3q20 -6 41 -10.5t45 -4.5q23 0 38.5 6.5t29.5 14.5q2 2 4 3l6 3q10 6 22.5 10t26.5 4q4 0 7.5 -1t7.5 -1q18 -6 35.5 -27.5t17.5 -49.5v-4v-3q-4 -45 -55 -83.5t-135 -38.5q-35 0 -64 6 t-55 14q-4 2 -9.5 3t-11.5 3q-20 6 -40.5 10t-45.5 4q-20 0 -36.5 -6t-30.5 -14q-2 -2 -4 -3l-7 -3q-10 -6 -21 -10t-26 -4q-4 0 -7 1t-7 1q-18 6 -35.5 28.5t-17.5 48.5z" />
<glyph unicode="&#x2dc;" horiz-adv-x="417" d="M-55 1393l264 112l264 -112q25 -12 36 -31t11 -43q0 -33 -19.5 -55.5t-54.5 -22.5q-8 0 -19 2t-26 8l-192 78l-193 -76q-14 -8 -24 -10t-19 -2q-35 0 -54 22.5t-19 55.5q0 25 11 43t36 29z" />
<glyph unicode="&#x2000;" horiz-adv-x="942" />
<glyph unicode="&#x2001;" horiz-adv-x="1886" />
<glyph unicode="&#x2002;" horiz-adv-x="942" />
<glyph unicode="&#x2003;" horiz-adv-x="1886" />
<glyph unicode="&#x2004;" horiz-adv-x="628" />
<glyph unicode="&#x2005;" horiz-adv-x="471" />
<glyph unicode="&#x2006;" horiz-adv-x="313" />
<glyph unicode="&#x2007;" horiz-adv-x="313" />
<glyph unicode="&#x2008;" horiz-adv-x="235" />
<glyph unicode="&#x2009;" horiz-adv-x="376" />
<glyph unicode="&#x200a;" horiz-adv-x="104" />
<glyph unicode="&#x2010;" horiz-adv-x="720" d="M571 471h-421q-33 -2 -55.5 20.5t-22.5 55.5t22.5 55.5t55.5 22.5l421 2q33 -2 55.5 -24.5t22.5 -55.5t-22.5 -55.5t-55.5 -22.5v2z" />
<glyph unicode="&#x2011;" horiz-adv-x="720" d="M571 471h-421q-33 -2 -55.5 20.5t-22.5 55.5t22.5 55.5t55.5 22.5l421 2q33 -2 55.5 -24.5t22.5 -55.5t-22.5 -55.5t-55.5 -22.5v2z" />
<glyph unicode="&#x2012;" horiz-adv-x="720" d="M571 471h-421q-33 -2 -55.5 20.5t-22.5 55.5t22.5 55.5t55.5 22.5l421 2q33 -2 55.5 -24.5t22.5 -55.5t-22.5 -55.5t-55.5 -22.5v2z" />
<glyph unicode="&#x2013;" horiz-adv-x="1024" d="M946 471h-868q-33 -2 -55.5 20.5t-22.5 55.5t22.5 55.5t55.5 22.5l868 2q33 -2 55.5 -24.5t22.5 -55.5t-22.5 -55.5t-55.5 -22.5v2z" />
<glyph unicode="&#x2014;" horiz-adv-x="2048" d="M0 627h2048q33 -2 55.5 -24.5t22.5 -55.5t-22.5 -55.5t-55.5 -22.5l-2048 2q-31 -2 -53.5 20.5t-22.5 55.5t22.5 55.5t53.5 22.5v2z" />
<glyph unicode="&#x2018;" horiz-adv-x="417" d="M74 1169l114 226q16 27 37 50t60 23q33 0 57.5 -21.5t24.5 -55.5v-6v-5q-2 -14 -7.5 -29.5t-15.5 -35.5l-115 -223q-14 -31 -34.5 -54.5t-61.5 -23.5q-33 0 -57.5 22.5t-24.5 55.5v5v5q2 14 7 29.5t16 35.5v2z" />
<glyph unicode="&#x2019;" horiz-adv-x="417" d="M74 1169l114 226q16 27 37 50t60 23q33 0 57.5 -21.5t24.5 -55.5v-6v-5q-2 -14 -7.5 -29.5t-15.5 -35.5l-115 -223q-14 -31 -34.5 -54.5t-61.5 -23.5q-33 0 -57.5 22.5t-24.5 55.5v5v5q2 14 7 29.5t16 35.5v2z" />
<glyph unicode="&#x201a;" />
<glyph unicode="&#x201c;" horiz-adv-x="684" d="M61 1169l115 226q16 27 36.5 50t59.5 23q33 0 57.5 -21.5t24.5 -55.5v-6v-5q-2 -14 -7 -29.5t-15 -35.5l-115 -223q-14 -31 -34.5 -54.5t-61.5 -23.5q-33 0 -57.5 22.5t-24.5 55.5v5v5q2 14 7 29.5t15 35.5v2zM352 1169l115 226q16 27 36.5 50t59.5 23q33 0 57.5 -21.5 t24.5 -55.5v-6v-5q-2 -14 -7 -29.5t-15 -35.5l-115 -223q-14 -31 -34.5 -54.5t-61.5 -23.5q-33 0 -57.5 22.5t-24.5 55.5v5v5q2 14 7 29.5t15 35.5v2z" />
<glyph unicode="&#x201d;" horiz-adv-x="684" d="M61 1169l115 226q16 27 36.5 50t59.5 23q33 0 57.5 -21.5t24.5 -55.5v-6v-5q-2 -14 -7 -29.5t-15 -35.5l-115 -223q-14 -31 -34.5 -54.5t-61.5 -23.5q-33 0 -57.5 22.5t-24.5 55.5v5v5q2 14 7 29.5t15 35.5v2zM352 1169l115 226q16 27 36.5 50t59.5 23q33 0 57.5 -21.5 t24.5 -55.5v-6v-5q-2 -14 -7 -29.5t-15 -35.5l-115 -223q-14 -31 -34.5 -54.5t-61.5 -23.5q-33 0 -57.5 22.5t-24.5 55.5v5v5q2 14 7 29.5t15 35.5v2z" />
<glyph unicode="&#x201e;" horiz-adv-x="684" d="M61 -104l115 225q16 27 36.5 50.5t59.5 23.5q33 0 57.5 -21.5t24.5 -56.5v-5v-6q-2 -14 -7 -29.5t-15 -35.5l-115 -223q-14 -29 -34.5 -52.5t-61.5 -23.5q-33 0 -57.5 21.5t-24.5 56.5v5v5q2 14 7 30t15 36zM352 -104l115 225q16 27 36.5 50.5t59.5 23.5q33 0 57.5 -21.5 t24.5 -56.5v-5v-6q-2 -14 -7 -29.5t-15 -35.5l-115 -223q-14 -29 -34.5 -52.5t-61.5 -23.5q-33 0 -57.5 21.5t-24.5 56.5v5v5q2 14 7 30t15 36z" />
<glyph unicode="&#x2022;" horiz-adv-x="1024" d="M147 729q0 150 107.5 256.5t257.5 106.5q152 0 258.5 -106.5t106.5 -258.5q0 -150 -106.5 -257.5t-258.5 -107.5q-150 0 -257.5 108t-107.5 257v2z" />
<glyph unicode="&#x2026;" horiz-adv-x="2048" d="M238 92q0 41 30.5 72t73.5 31t73.5 -31t30.5 -74t-30.5 -72.5t-73.5 -29.5t-73.5 29.5t-30.5 72.5v2zM920 92q0 41 30.5 72t73.5 31t73.5 -31t30.5 -74t-30.5 -72.5t-73.5 -29.5t-73.5 29.5t-30.5 72.5v2zM1602 92q0 41 30.5 72t73.5 31t73.5 -31t30.5 -74t-30.5 -72.5 t-73.5 -29.5t-73.5 29.5t-30.5 72.5v2z" />
<glyph unicode="&#x202f;" horiz-adv-x="376" />
<glyph unicode="&#x2039;" horiz-adv-x="530" d="M88 549l203 364q14 23 30.5 37.5t38.5 14.5h6h5q27 -4 49 -21.5t22 -50.5q0 -12 -6 -28.5t-16 -35.5l-170 -280l170 -283q10 -20 16 -36.5t6 -28.5q0 -33 -22.5 -50.5t-48.5 -21.5h-5h-6q-23 0 -39 14.5t-30 38.5z" />
<glyph unicode="&#x203a;" horiz-adv-x="530" d="M111 266l170 283l-170 282q-10 16 -16.5 33t-6.5 29q0 33 22.5 50.5t49.5 21.5h5h5q23 0 39 -14.5t31 -39.5l202 -362l-202 -365q-14 -27 -30.5 -41t-39.5 -14h-5h-5q-27 4 -49.5 21.5t-22.5 50.5q0 12 6 28.5t17 34.5v2z" />
<glyph unicode="&#x205f;" horiz-adv-x="471" />
<glyph unicode="&#x2122;" horiz-adv-x="2027" d="M379 698v625h-195q-31 -2 -48 15.5t-17 50.5q0 35 17.5 51t47.5 16l557 2q31 -2 48.5 -18.5t17.5 -50.5q0 -33 -17.5 -50.5t-48.5 -17.5l-194 2v-625q0 -41 -20.5 -65.5t-63.5 -24.5t-63.5 24.5t-20.5 63.5v2zM971 688v645q0 70 32.5 102.5t96.5 32.5h9h9q37 -4 69 -20 t50 -59l205 -533l200 535q18 41 50 57t69 20h9h10q63 0 96 -32.5t33 -104.5v-643q0 -35 -22.5 -57.5t-55.5 -22.5t-55.5 22.5t-22.5 55.5v592h-4l-221 -592q-14 -43 -34.5 -60.5t-53.5 -17.5t-52.5 17.5t-35.5 58.5l-222 594h-4v-590q0 -35 -22.5 -57.5t-54.5 -22.5 q-33 0 -55.5 22.5t-22.5 55.5v2z" />
<glyph unicode="&#xe000;" horiz-adv-x="1100" d="M0 1100h1100v-1100h-1100v1100z" />
<glyph unicode="&#xfb01;" horiz-adv-x="948" d="M829 1006v-922q0 -47 -24.5 -71.5t-65.5 -24.5t-65.5 24.5t-24.5 69.5v924q0 43 24.5 68.5t65.5 25.5t65.5 -25.5t24.5 -70.5v2zM628 1360q0 45 33 76.5t78 31.5q47 0 78.5 -31.5t31.5 -78.5q0 -45 -31.5 -78t-78.5 -33q-45 0 -78 33t-33 78v2zM356 934v-850 q0 -47 -24.5 -71.5t-65.5 -24.5t-65.5 24.5t-24.5 69.5v852h-74h-8q-39 0 -59 18q-23 20 -23 58q0 37 22.5 57t67.5 20l74 3v256q0 117 70.5 175t169.5 58l55 2q4 -2 9 -2t9 -2q31 -4 57.5 -23.5t26.5 -52.5q0 -37 -23.5 -57.5t-74.5 -20.5l-45 2q-41 -2 -57.5 -20.5 t-16.5 -52.5v-262h113q45 -2 67.5 -22.5t22.5 -57.5t-22.5 -57.5t-67.5 -20.5z" />
<glyph unicode="&#xfb02;" horiz-adv-x="948" d="M829 1485v-1401q0 -47 -24.5 -71.5t-65.5 -24.5t-65.5 24.5t-24.5 69.5v1403q0 43 24.5 68.5t65.5 25.5t65.5 -25.5t24.5 -70.5v2zM356 934v-850q0 -47 -24.5 -71.5t-65.5 -24.5t-65.5 24.5t-24.5 69.5v852h-74h-8q-39 0 -59 18q-23 20 -23 58q0 37 22.5 57t67.5 20l74 3 v256q0 117 70.5 175t169.5 58l55 2q4 -2 9 -2t9 -2q31 -4 57.5 -23.5t26.5 -52.5q0 -37 -23.5 -57.5t-74.5 -20.5l-45 2q-41 -2 -57.5 -20.5t-16.5 -52.5v-262h113q45 -2 67.5 -22.5t22.5 -57.5t-22.5 -57.5t-67.5 -20.5z" />
<glyph unicode="&#xfb03;" horiz-adv-x="1478" d="M1360 1006v-922q0 -47 -24.5 -71.5t-65.5 -24.5t-65.5 24.5t-24.5 69.5v924q0 43 24.5 68.5t65.5 25.5t65.5 -25.5t24.5 -70.5v2zM1159 1360q0 45 33 76.5t78 31.5q47 0 78.5 -31.5t31.5 -78.5q0 -45 -31.5 -78t-78.5 -33q-45 0 -78 33t-33 78v2zM886 934v-850 q0 -47 -24.5 -71.5t-65.5 -24.5t-65.5 24.5t-24.5 69.5v852h-74h-8q-39 0 -59 18q-23 20 -23 58q0 37 22.5 57t67.5 20l74 3v256q0 117 70.5 175t169.5 58l55 2q4 -2 9 -2t9 -2q31 -4 57.5 -23.5t26.5 -52.5q0 -37 -23.5 -57.5t-74.5 -20.5l-45 2q-41 -2 -57.5 -20.5 t-16.5 -52.5v-262h113q45 -2 67.5 -22.5t22.5 -57.5t-22.5 -57.5t-67.5 -20.5zM356 934v-850q0 -47 -24.5 -71.5t-65.5 -24.5t-65.5 24.5t-24.5 69.5v852h-74h-8q-39 0 -59 18q-23 20 -23 58q0 37 22.5 57t67.5 20l74 3v256q0 117 70.5 175t169.5 58l55 2q4 -2 9 -2t9 -2 q31 -4 57.5 -23.5t26.5 -52.5q0 -37 -23.5 -57.5t-74.5 -20.5l-45 2q-41 -2 -57.5 -20.5t-16.5 -52.5v-262h113q45 -2 67.5 -22.5t22.5 -57.5t-22.5 -57.5t-67.5 -20.5z" />
<glyph unicode="&#xfb04;" horiz-adv-x="1478" d="M1360 1485v-1401q0 -47 -24.5 -71.5t-65.5 -24.5t-65.5 24.5t-24.5 69.5v1403q0 43 24.5 68.5t65.5 25.5t65.5 -25.5t24.5 -70.5v2zM886 934v-850q0 -47 -24.5 -71.5t-65.5 -24.5t-65.5 24.5t-24.5 69.5v852h-74h-8q-39 0 -59 18q-23 20 -23 58q0 37 22.5 57t67.5 20 l74 3v256q0 117 70.5 175t169.5 58l55 2q4 -2 9 -2t9 -2q31 -4 57.5 -23.5t26.5 -52.5q0 -37 -23.5 -57.5t-74.5 -20.5l-45 2q-41 -2 -57.5 -20.5t-16.5 -52.5v-262h113q45 -2 67.5 -22.5t22.5 -57.5t-22.5 -57.5t-67.5 -20.5zM356 934v-850q0 -47 -24.5 -71.5t-65.5 -24.5 t-65.5 24.5t-24.5 69.5v852h-74h-8q-39 0 -59 18q-23 20 -23 58q0 37 22.5 57t67.5 20l74 3v256q0 117 70.5 175t169.5 58l55 2q4 -2 9 -2t9 -2q31 -4 57.5 -23.5t26.5 -52.5q0 -37 -23.5 -57.5t-74.5 -20.5l-45 2q-41 -2 -57.5 -20.5t-16.5 -52.5v-262h113 q45 -2 67.5 -22.5t22.5 -57.5t-22.5 -57.5t-67.5 -20.5z" />
</font>
</defs>
</svg>
